<?xml version="1.0" encoding="utf-8"?>
<!-- Generator: Adobe Illustrator 24.0.2, SVG Export Plug-In . SVG Version: 6.00 Build 0)  -->
<svg version="1.1" xmlns="http://www.w3.org/2000/svg" xmlns:xlink="http://www.w3.org/1999/xlink" x="0px" y="0px"
	 viewBox="0 0 178.96 128.07" style="enable-background:new 0 0 178.96 128.07;" xml:space="preserve">
<style type="text/css">
	.st0{fill-rule:evenodd;clip-rule:evenodd;fill:#DD5113;}
	.st1{fill-rule:evenodd;clip-rule:evenodd;fill:#E8A226;}
	.st2{fill-rule:evenodd;clip-rule:evenodd;fill:#F0C72F;}
	.st3{opacity:0.3;clip-path:url(#SVGID_2_);fill-rule:evenodd;clip-rule:evenodd;}
	.st4{fill-rule:evenodd;clip-rule:evenodd;fill:#FFFFFF;}
	.st5{fill-rule:evenodd;clip-rule:evenodd;}
	.st6{fill:#F2F2F2;}
	.st7{font-family:'Montserrat-ExtraBold';}
	.st8{font-size:34.4484px;}
</style>
<g id="BACKGROUND">
</g>
<g id="OBJECTS">
	<g>
		<g>
			<ellipse class="st0" cx="88.74" cy="66.2" rx="83.24" ry="61.87"/>
			<ellipse class="st1" cx="85.63" cy="64.2" rx="83.24" ry="61.87"/>
			<ellipse class="st2" cx="83.24" cy="61.87" rx="83.24" ry="61.87"/>
			<g>
				<defs>
					<ellipse id="SVGID_1_" cx="83.24" cy="61.87" rx="83.24" ry="61.87"/>
				</defs>
				<clipPath id="SVGID_2_">
					<use xlink:href="#SVGID_1_"  style="overflow:visible;"/>
				</clipPath>
				<path class="st3" d="M-5.19,76.53c16.69,11,35.6,13.97,55.25,15.74c10.95,0.99,21.93,2.14,32.89,0.62
					c22.06-3.07,45.59-15.74,59.32-33.45c13.27-17.12,18-39.9,17.81-61.14c-0.07-8.04-0.81-16.09-2.1-24.03
					c-0.39-2.41-0.92-4.76-1.62-7.11c-0.24-0.81-0.43-1.39-0.75-2.13c-0.1-0.24-0.34-0.95-0.34-0.69
					c0.17,11.85,5.83,24.94,9.47,36.02c4.36,13.26,5.87,17.38,9.14,28.58c6.57,22.54,12.98,47.02,10.48,70.66
					c-1.35,12.8-4.94,25.13-16.25,32.5c-6.93,4.52-15.42,6.57-23.46,8.01c-13.12,2.36-26.37,3.07-39.67,3.45
					c-16.25,0.47-32.42-0.79-48.58-2.46c-24.88-2.57-50.52-3.47-74.83-9.74"/>
			</g>
		</g>
		<g>
			<g>
				<polygon class="st4" points="160.9,92.9 154.85,98.96 144.45,69.8 173.6,80.2 167.55,86.26 175,93.71 168.36,100.35 				"/>
				<path class="st5" d="M160.9,92.9l-6.06,6.06l-10.4-29.15l29.15,10.4l-6.06,6.06l7.45,7.45l-6.64,6.64L160.9,92.9z M160.9,98.51
					l-3.25,3.25c-0.96,0.96-2.35,1.36-3.67,1.06c-1.33-0.3-2.41-1.25-2.86-2.53l-10.4-29.15c-0.51-1.44-0.15-3.05,0.93-4.14
					c1.08-1.08,2.69-1.44,4.13-0.93l29.15,10.4c1.28,0.46,2.24,1.54,2.53,2.86c0.3,1.32-0.1,2.71-1.06,3.67l-3.25,3.25l4.65,4.65
					c1.55,1.55,1.55,4.06,0,5.61l-6.64,6.64c-1.55,1.55-4.06,1.55-5.6,0L160.9,98.51z"/>
			</g>
			<g>
				<polygon class="st5" points="140.55,61.86 134.13,48.75 139.85,47.17 				"/>
				<polygon class="st5" points="145.88,61.7 150.54,52.61 153.62,54.77 				"/>
				<polygon class="st5" points="137.85,67.13 125.77,68.72 127.69,74.18 				"/>
				<polygon class="st5" points="137.99,74.22 134.89,80.48 138.1,81.31 				"/>
			</g>
		</g>
		<text transform="matrix(1 0 0 1 25.0262 57.4301)"><tspan x="0" y="0" class="st6 st7 st8">Click</tspan><tspan x="2.88" y="34" class="st6 st7 st8">Aquí</tspan></text>
	</g>
</g>
</svg>
