<svg id="Capa_1" data-name="Capa 1" xmlns="http://www.w3.org/2000/svg" viewBox="0 0 470.81 470.81"><defs><style>.cls-1{fill:#213a8f;}.cls-2{fill:#fff;}</style></defs><title>iconoPestana</title><circle class="cls-1" cx="235.4" cy="235.4" r="235.4"/><path class="cls-2" d="M233.06,462.52C128.55,476.15,8.69,362.88,6.23,240.91,3.86,122.77,104.68,7.39,235.29,7.15,367.82,6.9,461.5,120.67,464.53,229.93,468.3,365.42,340.33,476.17,233.06,462.52ZM344,62.23c4.26,10.93,7.51,19.2,10.71,27.49,24.5,63.33-11.3,161-103,169.33-43.39,3.95-76.95-16.66-91.62-57.77s14.13-85.06,55.91-82.51c9.65.59,21.89,10.48,27.07,19.47,6.75,11.7,6.77,26.47-9.53,29.11-9.18-6.85-20.68-16-29-13.73-16.16,4.42-15.12,19.71-10.07,33.56,10.92,29.95,50.05,39.09,74.9,17.55,31-26.85,30.75-72.37-.53-110.38C247,67.92,189.27,65,159.82,88.82c-68.77,55.66-55,163,25.58,200.06,69.87,32.08,164.8-3.59,196.13-73.62,3.51-7.85,7.59-15.44,12.63-25.62C414.4,274.33,342,349.07,290.73,360c-26.05,5.57-53.24,5.63-79.8,9-24.54,3.11-42.26,21.24-42.6,42.16-.33,19.53,7.91,27.57,31.94,31.19-6.11-37.35,5.06-50.93,43-52.08,10.07-.3,20.58,1.67,30.14-.56,24.23-5.65,50.87-8.34,71.56-20.62C462.67,299.28,458.2,127.33,344,62.23ZM31.15,238.32C35.9,302,53.27,346.41,81.77,365.53,87.43,353,93,340.64,95.62,334.91Z"/></svg>