<svg id="Capa_1" data-name="Capa 1" xmlns="http://www.w3.org/2000/svg" viewBox="0 0 56.69 55.16"><defs><style>.cls-1{fill:#fff;}</style></defs><title>menu</title><path class="cls-1" d="M28.35,41.51H49.78a6.82,6.82,0,0,1,.34,13.63c-6.48,0-13,0-19.45,0H6.85a6.82,6.82,0,0,1-.11-13.63c5.54,0,11.08,0,16.62,0Zm0,11h0c7.2,0,14.4,0,21.6,0a4.19,4.19,0,0,0,3.72-6,4.1,4.1,0,0,0-4-2.38H6.44a4.24,4.24,0,0,0-3.77,4.71A4.19,4.19,0,0,0,7.1,52.54Z"/><path class="cls-1" d="M28.37,13.65H6.93A6.81,6.81,0,0,1,6.54,0C12,0,17.36,0,22.76,0h27A6.78,6.78,0,0,1,56.5,5.32,6.78,6.78,0,0,1,50,13.64c-7.23,0-14.45,0-21.67,0Zm0-2.62H34c5.37,0,10.74,0,16.11,0a4.14,4.14,0,0,0,4-4.35,4.21,4.21,0,0,0-4.29-4H6.91A4.22,4.22,0,0,0,2.69,7.45,4.11,4.11,0,0,0,6.91,11Z"/><path class="cls-1" d="M49.84,20.76a6.82,6.82,0,0,1,.23,13.63c-6.81,0-13.61,0-20.42,0a1.28,1.28,0,0,1-1.42-1.28,1.33,1.33,0,0,1,1.51-1.33h14.4c1.91,0,3.82,0,5.73,0a4.21,4.21,0,0,0,1.32-8.2,4,4,0,0,0-1.33-.22h-43a4.2,4.2,0,1,0,0,8.4c5.39,0,10.78,0,16.17,0,1,0,1.54.52,1.51,1.37a1.24,1.24,0,0,1-1.16,1.23h-.29c-5.44,0-10.89,0-16.33,0a6.82,6.82,0,0,1,0-13.63C13.58,20.74,42.67,20.75,49.84,20.76Z"/></svg>