<svg id="Capa_1" data-name="Capa 1" xmlns="http://www.w3.org/2000/svg" viewBox="0 0 12.04 7.53"><title>vectores</title><path d="M0,7.44V7.1L2.82,0h.8L5.89,7.1v.34Zm1-.86H4.71L3,1.19Z"/><path d="M8.9,5c-.06-.29-.11-.56-.17-.82s-.12-.51-.18-.73A2.23,2.23,0,0,0,8.4,3a.3.3,0,0,0-.13-.14.29.29,0,0,0-.17-.05.36.36,0,0,0-.2.06.72.72,0,0,0-.2.17c-.07.09-.17.22-.29.4l-.35-.23a3.57,3.57,0,0,1,.66-.77,1.1,1.1,0,0,1,.73-.25.91.91,0,0,1,.3,0A.57.57,0,0,1,9,2.35a.71.71,0,0,1,.17.21,1.75,1.75,0,0,1,.15.33,3.74,3.74,0,0,1,.13.53c0,.21.08.43.11.66h.06c.34-.49.6-.84.78-1.07a5.11,5.11,0,0,1,.45-.5,1.11,1.11,0,0,1,.35-.23,1.18,1.18,0,0,1,.45-.07,1.25,1.25,0,0,1,.42.06l-.22,1h-.37c0-.15-.09-.23-.19-.23l-.1,0a.45.45,0,0,0-.14.07l-.23.21c-.1.1-.21.23-.34.38l-.38.48-.37.46c.06.34.13.64.18.89S10,6,10,6.16a2.32,2.32,0,0,0,.12.39.64.64,0,0,0,.11.22.4.4,0,0,0,.12.11.32.32,0,0,0,.14,0,.41.41,0,0,0,.28-.12,2.2,2.2,0,0,0,.4-.51l.35.23a3.18,3.18,0,0,1-.68.79,1.22,1.22,0,0,1-.73.23.93.93,0,0,1-.39-.08.8.8,0,0,1-.28-.27,1.8,1.8,0,0,1-.21-.57,10.1,10.1,0,0,1-.21-1.06H9c-.38.54-.66.92-.85,1.16a4.31,4.31,0,0,1-.46.51,1.22,1.22,0,0,1-.35.24,1.32,1.32,0,0,1-.45.07,1.12,1.12,0,0,1-.41-.07l.21-1h.38c0,.16.08.23.19.23a.34.34,0,0,0,.16,0,1.69,1.69,0,0,0,.24-.19c.1-.11.25-.27.43-.49S8.55,5.45,8.9,5Z"/></svg>