<svg id="Capa_1" data-name="Capa 1" xmlns="http://www.w3.org/2000/svg" viewBox="0 0 64.64 11.04"><title>vectores</title><path d="M1.54,8.78a.38.38,0,0,1-.26-.08.48.48,0,0,1-.17-.22A1.44,1.44,0,0,1,1,8.15a2.9,2.9,0,0,1,0-.43,5.18,5.18,0,0,1,0-.66c0-.23.06-.47.1-.7l.22-1.5a2.4,2.4,0,0,0,0-.24,1.31,1.31,0,0,0,0-.17.74.74,0,0,0,0-.28.2.2,0,0,0-.19-.11.55.55,0,0,0-.22.07,1.11,1.11,0,0,0-.24.16l-.23.2L.26,4.7,0,4.4a3.89,3.89,0,0,1,.36-.34,2.31,2.31,0,0,1,.39-.31,1.88,1.88,0,0,1,.45-.22,1.27,1.27,0,0,1,.47-.09A.82.82,0,0,1,2,3.51a.7.7,0,0,1,.2.18.64.64,0,0,1,.1.24,1.18,1.18,0,0,1,0,.26v.15a.51.51,0,0,1,0,.13l-.3,2c0,.21-.06.41-.08.6s0,.37,0,.52a3.57,3.57,0,0,0,0,.37c0,.09.06.14.11.14a1,1,0,0,0,.44-.14A3.52,3.52,0,0,0,3,7.51a4.69,4.69,0,0,0,.59-.59,5.6,5.6,0,0,0,.54-.74,4.52,4.52,0,0,0,.38-.84,2.77,2.77,0,0,0,.15-.89.51.51,0,0,0-.08-.3A.33.33,0,0,0,4.36,4a.59.59,0,0,0-.42.18,2.75,2.75,0,0,0-.4.46L3.23,4.4a2.75,2.75,0,0,1,.68-.68,2.32,2.32,0,0,1,.41-.22,1.19,1.19,0,0,1,.41-.08.69.69,0,0,1,.56.21.81.81,0,0,1,.17.54,2.29,2.29,0,0,1-.09.59,5.2,5.2,0,0,1-.26.71,7,7,0,0,1-.4.76A7.21,7.21,0,0,1,4.2,7a6.75,6.75,0,0,1-.6.69,4.34,4.34,0,0,1-.66.57,4,4,0,0,1-.69.39A2,2,0,0,1,1.54,8.78Z"/><polygon points="5.61 1.48 4.25 2.65 3.97 2.33 4.83 1.58 1.54 1.58 1.54 1.07 4.83 1.07 3.97 0.32 4.25 0 5.61 1.17 5.61 1.48"/><path d="M8.13,9.93c0,.08,0,.15,0,.21a.57.57,0,0,0,0,.15.36.36,0,0,0,0,.11l.07.07a.23.23,0,0,0,.13.07l.2.05.29,0,.41,0V11H6.2v-.34l.39,0,.27,0,.19,0,.12,0,.09-.08a.17.17,0,0,0,.06-.1.54.54,0,0,0,0-.15,1.55,1.55,0,0,0,0-.23V7.12a.33.33,0,0,0,0-.22.24.24,0,0,0-.17-.06A.82.82,0,0,0,6.79,7a5.49,5.49,0,0,0-.62.37,1.62,1.62,0,0,1-.1-.18L6,7c.33-.17.65-.35,1-.53l1-.53h.24c0,.15,0,.28,0,.39s0,.22,0,.33v3.3Z"/><path d="M14.23,4.78V4.06h6.64v.72Zm0,2.23V6.3h6.64V7Z"/><path d="M29,8.78a.38.38,0,0,1-.26-.08.48.48,0,0,1-.17-.22,1.44,1.44,0,0,1-.09-.33,2.9,2.9,0,0,1,0-.43,5.18,5.18,0,0,1,0-.66c0-.23.06-.47.1-.7l.22-1.5a2.4,2.4,0,0,0,0-.24,1.31,1.31,0,0,0,0-.17.74.74,0,0,0-.05-.28.2.2,0,0,0-.19-.11.55.55,0,0,0-.22.07,1.11,1.11,0,0,0-.24.16l-.23.2-.21.21-.26-.3a3.89,3.89,0,0,1,.36-.34,2.31,2.31,0,0,1,.39-.31,1.88,1.88,0,0,1,.45-.22,1.27,1.27,0,0,1,.47-.09.82.82,0,0,1,.34.07.7.7,0,0,1,.2.18.64.64,0,0,1,.1.24,1.18,1.18,0,0,1,0,.26v.15a.51.51,0,0,1,0,.13l-.3,2c0,.21-.06.41-.08.6s0,.37,0,.52a3.57,3.57,0,0,0,0,.37c0,.09.06.14.11.14A1,1,0,0,0,30,7.91a3.52,3.52,0,0,0,.57-.4,4.69,4.69,0,0,0,.59-.59,5.6,5.6,0,0,0,.54-.74A4.52,4.52,0,0,0,32,5.34a2.77,2.77,0,0,0,.15-.89.51.51,0,0,0-.08-.3A.33.33,0,0,0,31.84,4a.59.59,0,0,0-.42.18,2.75,2.75,0,0,0-.4.46l-.31-.28a2.75,2.75,0,0,1,.68-.68,2.32,2.32,0,0,1,.41-.22,1.19,1.19,0,0,1,.41-.08.69.69,0,0,1,.56.21.81.81,0,0,1,.17.54,2.29,2.29,0,0,1-.09.59,5.2,5.2,0,0,1-.26.71,7,7,0,0,1-.4.76,7.21,7.21,0,0,1-.51.76,6.75,6.75,0,0,1-.6.69,4.34,4.34,0,0,1-.66.57,4,4,0,0,1-.69.39A2,2,0,0,1,29,8.78Z"/><polygon points="33.09 1.48 31.73 2.65 31.45 2.33 32.31 1.58 29.02 1.58 29.02 1.07 32.31 1.07 31.45 0.32 31.73 0 33.09 1.17 33.09 1.48"/><path d="M35.83,10.33h.3a.48.48,0,0,0,.18-.06.36.36,0,0,0,.12-.15,1.29,1.29,0,0,0,.12-.26h.37c0,.18,0,.37,0,.56s0,.37,0,.56H33.52v-.2a2.1,2.1,0,0,1,.22-.42A3.41,3.41,0,0,1,34,9.93a4.37,4.37,0,0,1,.36-.44c.13-.15.28-.31.44-.47a8.06,8.06,0,0,0,.6-.63,5.32,5.32,0,0,0,.37-.46A1.61,1.61,0,0,0,36,7.55,1.44,1.44,0,0,0,36,7.18,1.1,1.1,0,0,0,36,6.81a.76.76,0,0,0-.16-.28.77.77,0,0,0-.27-.19,1.07,1.07,0,0,0-.38-.07,1,1,0,0,0-.61.2,1.31,1.31,0,0,0-.38.58h-.52V6.28a5.5,5.5,0,0,1,.93-.3,3.63,3.63,0,0,1,.76-.09A2.31,2.31,0,0,1,36,6a1.17,1.17,0,0,1,.47.25.86.86,0,0,1,.26.37,1.27,1.27,0,0,1,.08.48,1.23,1.23,0,0,1,0,.28,1.11,1.11,0,0,1-.07.26,1.65,1.65,0,0,1-.14.26,1.74,1.74,0,0,1-.22.27,2.82,2.82,0,0,1-.25.3l-.35.35c-.12.12-.25.26-.39.39s-.27.27-.39.41l-.36.38-.26.35Z"/><path d="M42,4.78V4.06h6.64v.72ZM42,7V6.3h6.64V7Z"/><path d="M56.74,8.78a.38.38,0,0,1-.26-.08.48.48,0,0,1-.17-.22,1.44,1.44,0,0,1-.09-.33,2.9,2.9,0,0,1,0-.43,5.18,5.18,0,0,1,0-.66c0-.23.06-.47.1-.7l.22-1.5a2.4,2.4,0,0,0,0-.24,1.31,1.31,0,0,0,0-.17.74.74,0,0,0-.05-.28.2.2,0,0,0-.19-.11.55.55,0,0,0-.22.07,1.11,1.11,0,0,0-.24.16l-.23.2-.21.21-.26-.3a3.89,3.89,0,0,1,.36-.34A2.31,2.31,0,0,1,56,3.75a1.88,1.88,0,0,1,.45-.22,1.27,1.27,0,0,1,.47-.09.82.82,0,0,1,.34.07.7.7,0,0,1,.2.18.64.64,0,0,1,.1.24,1.18,1.18,0,0,1,0,.26v.15a.51.51,0,0,1,0,.13l-.3,2c0,.21-.06.41-.08.6s0,.37,0,.52a3.57,3.57,0,0,0,0,.37c0,.09.06.14.11.14a1,1,0,0,0,.44-.14,3.52,3.52,0,0,0,.57-.4,4.69,4.69,0,0,0,.59-.59,5.6,5.6,0,0,0,.54-.74,4.52,4.52,0,0,0,.38-.84,2.77,2.77,0,0,0,.15-.89.51.51,0,0,0-.08-.3A.33.33,0,0,0,59.56,4a.59.59,0,0,0-.42.18,2.75,2.75,0,0,0-.4.46l-.31-.28a2.75,2.75,0,0,1,.68-.68,2.32,2.32,0,0,1,.41-.22,1.19,1.19,0,0,1,.41-.08.69.69,0,0,1,.56.21.81.81,0,0,1,.17.54,2.29,2.29,0,0,1-.09.59,5.2,5.2,0,0,1-.26.71,7,7,0,0,1-.4.76A7.21,7.21,0,0,1,59.4,7a6.75,6.75,0,0,1-.6.69,4.34,4.34,0,0,1-.66.57,4,4,0,0,1-.69.39A2,2,0,0,1,56.74,8.78Z"/><polygon points="60.81 1.48 59.45 2.65 59.17 2.33 60.03 1.58 56.74 1.58 56.74 1.07 60.03 1.07 59.17 0.32 59.45 0 60.81 1.17 60.81 1.48"/><path d="M61.38,7.06V6.28A5.21,5.21,0,0,1,62.25,6a3.17,3.17,0,0,1,.79-.1,2.81,2.81,0,0,1,.59.06,1.55,1.55,0,0,1,.47.2,1.1,1.1,0,0,1,.31.34.91.91,0,0,1,.11.47,1.25,1.25,0,0,1-.07.45,1,1,0,0,1-.22.34,1.34,1.34,0,0,1-.36.29,3.2,3.2,0,0,1-.49.24v.05a1.87,1.87,0,0,1,.49.15,1.41,1.41,0,0,1,.4.27,1.22,1.22,0,0,1,.27.36,1.15,1.15,0,0,1,.1.46,1.45,1.45,0,0,1-.12.59,1.41,1.41,0,0,1-.35.46,1.94,1.94,0,0,1-.59.31,2.76,2.76,0,0,1-.8.11A3.82,3.82,0,0,1,62,11a3.89,3.89,0,0,1-.71-.19V9.93h.51a1.72,1.72,0,0,0,.14.33.93.93,0,0,0,.21.23.71.71,0,0,0,.26.13,1.78,1.78,0,0,0,.35,0,1,1,0,0,0,.76-.25.92.92,0,0,0,.27-.73.94.94,0,0,0-.35-.79,1.63,1.63,0,0,0-1-.27h-.34V8.25a3.38,3.38,0,0,0,.71-.12,1.56,1.56,0,0,0,.5-.25,1,1,0,0,0,.4-.79.81.81,0,0,0-.23-.6.9.9,0,0,0-.64-.22.92.92,0,0,0-.6.2,1.2,1.2,0,0,0-.37.59Z"/></svg>