<svg id="Capa_1" data-name="Capa 1" xmlns="http://www.w3.org/2000/svg" viewBox="0 0 5.26 8.69"><title>vectores</title><path d="M2.27,4.84a4.52,4.52,0,0,1,1-1.06,1.72,1.72,0,0,1,1-.33,3,3,0,0,1,.66.06L4.67,4.72H4.12A1.17,1.17,0,0,0,4,4.37a.45.45,0,0,0-.14-.18.46.46,0,0,0-.21,0,.72.72,0,0,0-.42.16,2.91,2.91,0,0,0-.52.53,3.62,3.62,0,0,0-.45.68A3.43,3.43,0,0,0,2,6.36L1.49,8.69H.56l.78-3.42c0-.21.08-.38.1-.5s0-.22,0-.3a.53.53,0,0,0-.07-.31.27.27,0,0,0-.22-.1.6.6,0,0,0-.35.14,3.24,3.24,0,0,0-.51.5L0,4.4a5.32,5.32,0,0,1,.83-.74,1.37,1.37,0,0,1,.74-.22.66.66,0,0,1,.53.23.8.8,0,0,1,.2.58,1.62,1.62,0,0,1-.1.56Z"/><polygon points="5.26 1.48 3.91 2.65 3.62 2.33 4.48 1.58 1.2 1.58 1.2 1.07 4.48 1.07 3.62 0.32 3.91 0 5.26 1.17 5.26 1.48"/></svg>