<svg id="Capa_1" data-name="Capa 1" xmlns="http://www.w3.org/2000/svg" viewBox="0 0 35.83 7.8"><defs><style>.cls-1{fill:#2b4d9d;}</style></defs><title>vectores</title><path class="cls-1" d="M3.21,6.34a4.8,4.8,0,0,1-1,1.1,1.57,1.57,0,0,1-1,.35,1,1,0,0,1-.92-.44A2.1,2.1,0,0,1,0,6.09,4.53,4.53,0,0,1,.36,4.31,3.41,3.41,0,0,1,1.36,3a2.27,2.27,0,0,1,1.42-.49,2.37,2.37,0,0,1,.61.07A2.2,2.2,0,0,1,4,2.77l.28-1.24a3.65,3.65,0,0,0,.07-.4,2.75,2.75,0,0,0,0-.38.43.43,0,0,0,0-.24A.3.3,0,0,0,4.12.39a2,2,0,0,0-.4-.06L3.78.05,5.14,0h.32L4.11,6a4,4,0,0,0-.12.8.59.59,0,0,0,.07.31.25.25,0,0,0,.23.1.58.58,0,0,0,.34-.13,3.87,3.87,0,0,0,.52-.51l.31.31a5.14,5.14,0,0,1-.84.73,1.3,1.3,0,0,1-.73.22.69.69,0,0,1-.54-.22A.86.86,0,0,1,3.15,7a1.65,1.65,0,0,1,.13-.63Zm.36-1.91a3.88,3.88,0,0,0,.08-.73.86.86,0,0,0-.18-.61.76.76,0,0,0-.59-.2,1.34,1.34,0,0,0-1,.45,3.16,3.16,0,0,0-.69,1.2A4.91,4.91,0,0,0,1,6a1.78,1.78,0,0,0,.16.84.53.53,0,0,0,.51.28A1,1,0,0,0,2,7.09a1.26,1.26,0,0,0,.36-.24,3.5,3.5,0,0,0,.37-.39c.12-.16.23-.31.33-.47a3.51,3.51,0,0,0,.28-.55,4.32,4.32,0,0,0,.22-.78Z"/><path d="M10.08,3.8V3.08h6.64V3.8Zm0,2.24V5.32h6.64V6Z"/><path d="M23.34,7.8a5.66,5.66,0,0,1-1.95-.38V6.27H22a1.6,1.6,0,0,0,.49.81,1.29,1.29,0,0,0,.85.26,1.33,1.33,0,0,0,1.08-.43,2,2,0,0,0,.37-1.29,2,2,0,0,0-.2-.94,1.26,1.26,0,0,0-.52-.55A1.68,1.68,0,0,0,23.34,4a3.92,3.92,0,0,0-.63,0,3.62,3.62,0,0,0-.56.15l-.43-.26V.36h3a.79.79,0,0,0,.26,0,.26.26,0,0,0,.13-.1A.81.81,0,0,0,25.19,0h.42l-.08,1.25h-3.1V3.62A2.89,2.89,0,0,1,23,3.44a3.68,3.68,0,0,1,.66-.06,2.46,2.46,0,0,1,1.14.26,1.83,1.83,0,0,1,.76.75,2.23,2.23,0,0,1,.27,1.11,2.4,2.4,0,0,1-.3,1.24,1.91,1.91,0,0,1-.87.79,3.14,3.14,0,0,1-1.36.27Z"/><path d="M29.08,3.93a4.54,4.54,0,0,1,1-1.1,1.68,1.68,0,0,1,1-.36,1,1,0,0,1,.79.3,1.2,1.2,0,0,1,.27.85v.15a3.76,3.76,0,0,1,.92-1,1.64,1.64,0,0,1,1-.33,1,1,0,0,1,.76.29,1.12,1.12,0,0,1,.27.8,4.5,4.5,0,0,1-.15,1l-.35,1.41a3.94,3.94,0,0,0-.15.83.51.51,0,0,0,.07.31.25.25,0,0,0,.22.1A.61.61,0,0,0,35,7.05a4,4,0,0,0,.51-.51l.31.31a5.83,5.83,0,0,1-.81.72,1.41,1.41,0,0,1-.79.23.69.69,0,0,1-.56-.25,1,1,0,0,1-.21-.64,4.42,4.42,0,0,1,.18-1L33.88,5c.09-.34.14-.59.17-.75a2.13,2.13,0,0,0,0-.39A.94.94,0,0,0,34,3.27a.49.49,0,0,0-.41-.16.88.88,0,0,0-.48.16,2.44,2.44,0,0,0-.55.53,5.43,5.43,0,0,0-.47.71,3.26,3.26,0,0,0-.28.85l-.49,2.35h-.94L31,5c.08-.34.13-.59.16-.75a3.51,3.51,0,0,0,0-.41A.87.87,0,0,0,31,3.27a.52.52,0,0,0-.43-.16.85.85,0,0,0-.46.16,2.39,2.39,0,0,0-.56.55,3.82,3.82,0,0,0-.47.72,4.34,4.34,0,0,0-.28.84l-.51,2.33h-.93l.79-3.41a4.47,4.47,0,0,0,.11-.8.49.49,0,0,0-.07-.31.24.24,0,0,0-.22-.1.54.54,0,0,0-.35.14,4.15,4.15,0,0,0-.51.49l-.31-.3a5.16,5.16,0,0,1,.82-.72,1.35,1.35,0,0,1,.75-.23.67.67,0,0,1,.54.22.88.88,0,0,1,.2.59,1.87,1.87,0,0,1-.13.63Z"/></svg>