<svg id="Capa_1" data-name="Capa 1" xmlns="http://www.w3.org/2000/svg" viewBox="0 0 26.4 10.03"><title>vectores</title><path d="M2.34,5.5a1,1,0,0,0-.1-.29.27.27,0,0,0-.13-.11.66.66,0,0,0-.24,0H1.49L.93,7.71H0L1.39,1.55c0-.21.08-.37.1-.49s0-.22,0-.31A.34.34,0,0,0,1.38.44,1.05,1.05,0,0,0,.88.33L1,.05,2.31,0h.32L1.57,4.71h.17a1.69,1.69,0,0,0,.91-.35,7.07,7.07,0,0,0,.81-.66.84.84,0,0,0,.3-.58c0-.17-.12-.27-.37-.3l.06-.26H5.2l.1.26c-.3.27-.62.54-1,.8L3,4.65,3.54,6.6A1.86,1.86,0,0,0,3.66,7a.34.34,0,0,0,.12.16.24.24,0,0,0,.18,0A.59.59,0,0,0,4.29,7a2.88,2.88,0,0,0,.44-.43l.31.3a4.44,4.44,0,0,1-.8.71,1.22,1.22,0,0,1-.62.2A.79.79,0,0,1,3,7.59,1.48,1.48,0,0,1,2.7,6.9ZM8,3.93a4.54,4.54,0,0,1,1-1.1,1.68,1.68,0,0,1,1-.36,1,1,0,0,1,.79.3,1.2,1.2,0,0,1,.27.85v.15a3.76,3.76,0,0,1,.92-1,1.64,1.64,0,0,1,1-.33,1,1,0,0,1,.76.29,1.12,1.12,0,0,1,.27.8,4.5,4.5,0,0,1-.15,1l-.35,1.41a3.94,3.94,0,0,0-.15.83.51.51,0,0,0,.07.31.25.25,0,0,0,.22.1.61.61,0,0,0,.35-.13,4,4,0,0,0,.51-.51l.31.31a5.83,5.83,0,0,1-.81.72,1.41,1.41,0,0,1-.79.23.69.69,0,0,1-.56-.25,1,1,0,0,1-.21-.64,4.42,4.42,0,0,1,.18-1L12.8,5c.09-.34.14-.59.17-.75a2.13,2.13,0,0,0,0-.39.94.94,0,0,0-.12-.54.49.49,0,0,0-.41-.16.88.88,0,0,0-.48.16,2.44,2.44,0,0,0-.55.53,4.48,4.48,0,0,0-.46.71,2.92,2.92,0,0,0-.29.85l-.49,2.35H9.27L9.89,5c.08-.34.13-.59.16-.75a3.51,3.51,0,0,0,0-.41A.87.87,0,0,0,10,3.27a.52.52,0,0,0-.43-.16.85.85,0,0,0-.46.16,2.39,2.39,0,0,0-.56.55A4.39,4.39,0,0,0,8,4.54a4.34,4.34,0,0,0-.28.84L7.24,7.71H6.31L7.1,4.3a4.47,4.47,0,0,0,.11-.8.49.49,0,0,0-.07-.31.24.24,0,0,0-.22-.1.54.54,0,0,0-.35.14,4.15,4.15,0,0,0-.51.49l-.31-.3a5.16,5.16,0,0,1,.82-.72,1.35,1.35,0,0,1,.75-.23.67.67,0,0,1,.54.22.88.88,0,0,1,.2.59,1.87,1.87,0,0,1-.13.63Z"/><polygon points="20.08 0 16.18 10.03 15.34 10.03 19.24 0 20.08 0"/><path d="M22.29,1.55a4.62,4.62,0,0,0,.12-.8.34.34,0,0,0-.13-.31,1.05,1.05,0,0,0-.5-.11l.07-.28,1.36,0h.32L22.6,3.74l.06,0a4.27,4.27,0,0,1,1-1,1.66,1.66,0,0,1,.92-.31,1,1,0,0,1,.77.29,1.12,1.12,0,0,1,.27.8,4.06,4.06,0,0,1-.16,1l-.35,1.41a4.47,4.47,0,0,0-.14.83.51.51,0,0,0,.07.31.24.24,0,0,0,.22.1.56.56,0,0,0,.34-.13,3.35,3.35,0,0,0,.52-.51l.31.31a5.3,5.3,0,0,1-.85.75,1.45,1.45,0,0,1-.75.2.69.69,0,0,1-.56-.25,1,1,0,0,1-.2-.64,4.42,4.42,0,0,1,.18-1L24.45,5c.08-.34.14-.59.16-.75a2.57,2.57,0,0,0,.05-.39.87.87,0,0,0-.13-.55.48.48,0,0,0-.4-.15.9.9,0,0,0-.49.18,2.69,2.69,0,0,0-.57.56,4.34,4.34,0,0,0-.47.71,3.28,3.28,0,0,0-.28.82l-.49,2.33H20.9Z"/></svg>