<svg id="Capa_1" data-name="Capa 1" xmlns="http://www.w3.org/2000/svg" viewBox="0 0 46.78 17.46"><defs><style>.cls-1{fill:#866bad;}</style></defs><title>vectores</title><path class="cls-1" d="M1.54,11.93a.45.45,0,0,1-.26-.08.48.48,0,0,1-.17-.22A1.39,1.39,0,0,1,1,11.29a2.77,2.77,0,0,1,0-.42,5.07,5.07,0,0,1,0-.66c0-.23.06-.47.1-.71L1.35,8a2.4,2.4,0,0,0,0-.24,1.31,1.31,0,0,0,0-.17.7.7,0,0,0,0-.28.2.2,0,0,0-.19-.11.43.43,0,0,0-.22.07L.7,7.43l-.23.21-.21.21L0,7.55a3.89,3.89,0,0,1,.36-.34A2.31,2.31,0,0,1,.75,6.9a1.88,1.88,0,0,1,.45-.22,1.27,1.27,0,0,1,.47-.09A.82.82,0,0,1,2,6.66a.7.7,0,0,1,.2.18.64.64,0,0,1,.1.24,1.18,1.18,0,0,1,0,.26v.15a.51.51,0,0,1,0,.13l-.3,2c0,.2-.06.4-.08.6s0,.37,0,.52a3.57,3.57,0,0,0,0,.37c0,.09.06.14.11.14a1,1,0,0,0,.44-.15A2.9,2.9,0,0,0,3,10.66a4.69,4.69,0,0,0,.59-.59,5.6,5.6,0,0,0,.54-.74,4.52,4.52,0,0,0,.38-.84A2.82,2.82,0,0,0,4.7,7.6a.51.51,0,0,0-.08-.3.33.33,0,0,0-.26-.11.59.59,0,0,0-.42.18,2.75,2.75,0,0,0-.4.46l-.31-.28a2.75,2.75,0,0,1,.68-.68,2.32,2.32,0,0,1,.41-.22,1.19,1.19,0,0,1,.41-.08.72.72,0,0,1,.56.2.86.86,0,0,1,.17.55,2.29,2.29,0,0,1-.09.59,5.2,5.2,0,0,1-.26.71,7,7,0,0,1-.4.76,7.21,7.21,0,0,1-.51.76,8,8,0,0,1-.6.69,4.34,4.34,0,0,1-.66.57,4,4,0,0,1-.69.39A2,2,0,0,1,1.54,11.93Z"/><path d="M9.79,7.93V7.21h6.64v.72Zm0,2.23V9.45h6.64v.71Z"/><path d="M25.79,4.74l-3.13,7.14h-.79v-.27l2.91-6.15V5.38H22.41a1.08,1.08,0,0,0-.35,0,.71.71,0,0,0-.23.12.51.51,0,0,0-.14.2,3.08,3.08,0,0,0-.17.49h-.46l.11-1.75h4.62Z"/><path d="M30.17,11a1.66,1.66,0,0,0,.42,0,.57.57,0,0,0,.26-.1.53.53,0,0,0,.16-.2l.14-.38h.46l-.1,1.58H27.08v-.26a6.59,6.59,0,0,1,.62-1.16A15.1,15.1,0,0,1,28.82,9c.42-.46.72-.8.9-1a4.89,4.89,0,0,0,.45-.67,2.3,2.3,0,0,0,.21-.54,1.68,1.68,0,0,0,.07-.5,1.91,1.91,0,0,0-.13-.71,1.08,1.08,0,0,0-.4-.49,1.17,1.17,0,0,0-.67-.18A1.37,1.37,0,0,0,27.89,6h-.65V5a5.92,5.92,0,0,1,1.22-.45,4.51,4.51,0,0,1,1-.14A2.3,2.3,0,0,1,31,4.83a1.61,1.61,0,0,1,.51,1.28,2.12,2.12,0,0,1-.06.52,1.88,1.88,0,0,1-.18.48,3.41,3.41,0,0,1-.32.5l-.45.55-.86.92A11.87,11.87,0,0,0,28.13,11Z"/><path d="M35.94,3.39l-.43,2h-.75l1-4.22q0-.21.06-.33a.82.82,0,0,0,0-.21.27.27,0,0,0,0-.13.26.26,0,0,0-.09-.09.44.44,0,0,0-.15,0l-.25,0,.06-.26,1.08,0h.29L36,3.05h.11A1.05,1.05,0,0,0,36.45,3a1.74,1.74,0,0,0,.34-.16,3.29,3.29,0,0,0,.33-.23,3.32,3.32,0,0,0,.27-.25,1.64,1.64,0,0,0,.19-.24.41.41,0,0,0,.08-.19.22.22,0,0,0-.07-.16.46.46,0,0,0-.23-.08l0-.25h1.42l.09.25-.47.39L38,2.42l-.43.32-.45.34c.06.2.13.4.19.6s.13.41.2.61.06.2.09.28a1.14,1.14,0,0,0,.09.19.36.36,0,0,0,.1.11.28.28,0,0,0,.13,0,.25.25,0,0,0,.12,0,.33.33,0,0,0,.13-.07.94.94,0,0,0,.16-.14l.21-.22.27.26L38.47,5a2.74,2.74,0,0,1-.31.23,1.11,1.11,0,0,1-.27.13.84.84,0,0,1-.27,0,.62.62,0,0,1-.4-.12A1,1,0,0,1,37,5a2.93,2.93,0,0,1-.19-.55c-.06-.22-.13-.46-.21-.73l-.05-.15a.22.22,0,0,0-.07-.09.15.15,0,0,0-.1,0h-.4Z"/><path d="M43,5.36h-.76q0-.25.12-.54c.05-.19.09-.39.14-.58s.09-.39.13-.59.09-.36.12-.53.06-.32.08-.45a2.24,2.24,0,0,0,0-.31A.61.61,0,0,0,42.74,2a.42.42,0,0,0-.31-.11A.67.67,0,0,0,42,2a1.58,1.58,0,0,0-.41.37,2.49,2.49,0,0,0-.35.52,2.16,2.16,0,0,0-.22.58l-.4,1.87h-.77l.59-2.56c0-.14.06-.27.08-.37s0-.19,0-.26-.08-.29-.23-.29a.4.4,0,0,0-.15,0L40,2l-.17.15-.22.21-.27-.25c.13-.13.25-.25.36-.34a2,2,0,0,1,.31-.24,1.3,1.3,0,0,1,.3-.13,1,1,0,0,1,.3,0,.53.53,0,0,1,.45.19.73.73,0,0,1,.16.5.91.91,0,0,1,0,.17.75.75,0,0,1,0,.16l0,0A3.13,3.13,0,0,1,42,1.61a1.34,1.34,0,0,1,.76-.26.86.86,0,0,1,.63.21.93.93,0,0,1,.2.63v.07a.15.15,0,0,1,0,.07h0a3,3,0,0,1,.73-.74,1.33,1.33,0,0,1,.75-.24.83.83,0,0,1,.62.22.89.89,0,0,1,.21.63,1.6,1.6,0,0,1,0,.33c0,.14-.06.29-.1.45l-.12.52c0,.17-.09.34-.13.5s0,.18-.05.25a1.24,1.24,0,0,0,0,.16s0,.08,0,.11a.31.31,0,0,0,0,.1.34.34,0,0,0,.06.22.23.23,0,0,0,.18.06l.14,0,.15-.09.17-.15c.07-.06.14-.14.22-.22l.27.26c-.13.13-.24.24-.35.33a2,2,0,0,1-.32.24,1.3,1.3,0,0,1-.3.13,1.06,1.06,0,0,1-.31,0,.6.6,0,0,1-.27-.06.51.51,0,0,1-.21-.15A.8.8,0,0,1,44.71,5a.93.93,0,0,1-.05-.29,3.4,3.4,0,0,1,.14-.83c.05-.17.1-.33.14-.49S45,3.09,45,3s.05-.25.07-.36a1.19,1.19,0,0,0,0-.25A.6.6,0,0,0,45,2a.34.34,0,0,0-.29-.11.69.69,0,0,0-.26.06,1.34,1.34,0,0,0-.27.17,2.29,2.29,0,0,0-.27.27,2,2,0,0,0-.25.33,1.72,1.72,0,0,0-.2.38,2,2,0,0,0-.14.39Z"/><path d="M41.68,16c0,.1,0,.18-.06.25a.5.5,0,0,0,0,.16.52.52,0,0,0,0,.11v.1a.34.34,0,0,0,0,.22.24.24,0,0,0,.18.06l.14,0a.6.6,0,0,0,.15-.09l.18-.15.21-.22.14.13.13.13c-.13.13-.25.25-.36.34a2,2,0,0,1-.32.24,1.45,1.45,0,0,1-.29.13,1.06,1.06,0,0,1-.31,0,.55.55,0,0,1-.26-.06.51.51,0,0,1-.21-.15.83.83,0,0,1-.14-.22.92.92,0,0,1,0-.29,2.38,2.38,0,0,1,0-.36,3.67,3.67,0,0,1,.09-.43c0-.15.07-.3.11-.45s.08-.3.11-.43.06-.26.09-.37a1.58,1.58,0,0,0,0-.26,1.34,1.34,0,0,0,0-.21.49.49,0,0,0-.06-.17.32.32,0,0,0-.12-.11.4.4,0,0,0-.2,0,.69.69,0,0,0-.4.14,1.86,1.86,0,0,0-.42.38,3.41,3.41,0,0,0-.36.52,2.19,2.19,0,0,0-.21.57c-.07.31-.13.62-.2.93s-.12.63-.19.94h-.75l.93-4.22c0-.13.05-.24.06-.32a.94.94,0,0,0,0-.22.27.27,0,0,0,0-.13s0-.06-.08-.09l-.15-.05-.25,0,.06-.26L40,12h.28l-.53,2.22h.05a4.74,4.74,0,0,1,.37-.39,1.76,1.76,0,0,1,.69-.44,1.41,1.41,0,0,1,.35,0,.86.86,0,0,1,.63.22.93.93,0,0,1,.2.63c0,.08,0,.18,0,.3s0,.25-.08.41Z"/><rect x="34.3" y="8.36" width="12.48" height="0.72"/></svg>