<svg id="Capa_1" data-name="Capa 1" xmlns="http://www.w3.org/2000/svg" viewBox="0 0 5.46 5.36"><defs><style>.cls-1{fill:#1d1d1b;}</style></defs><title>vectores</title><path class="cls-1" d="M1.54,5.36a.45.45,0,0,1-.26-.08.54.54,0,0,1-.17-.22A1.53,1.53,0,0,1,1,4.72,2.77,2.77,0,0,1,1,4.3a5.07,5.07,0,0,1,0-.66c0-.23.06-.47.1-.71l.22-1.49c0-.09,0-.17,0-.25A1.16,1.16,0,0,0,1.4,1a.68.68,0,0,0,0-.27A.2.2,0,0,0,1.16.64.52.52,0,0,0,.94.7,1.67,1.67,0,0,0,.7.86l-.23.21a2.08,2.08,0,0,0-.21.21L0,1C.11.86.23.75.36.63A2.88,2.88,0,0,1,.75.33,1.57,1.57,0,0,1,1.2.11,1.27,1.27,0,0,1,1.67,0,.69.69,0,0,1,2,.09a.49.49,0,0,1,.2.18.64.64,0,0,1,.1.24,1.14,1.14,0,0,1,0,.26V.92a.59.59,0,0,1,0,.13L2,3c0,.2-.06.4-.08.6a5.11,5.11,0,0,0,0,.52,3.57,3.57,0,0,0,0,.37c0,.09.06.14.11.14a1,1,0,0,0,.44-.15A2.9,2.9,0,0,0,3,4.09a5.47,5.47,0,0,0,.59-.59,5.11,5.11,0,0,0,.54-.75,4,4,0,0,0,.38-.84A2.73,2.73,0,0,0,4.7,1,.48.48,0,0,0,4.62.73.3.3,0,0,0,4.36.62.59.59,0,0,0,3.94.8a2.75,2.75,0,0,0-.4.46L3.23,1A2.75,2.75,0,0,1,3.91.3,1.81,1.81,0,0,1,4.32.08,1.19,1.19,0,0,1,4.73,0a.72.72,0,0,1,.56.2.85.85,0,0,1,.17.54,2.36,2.36,0,0,1-.09.6,4.66,4.66,0,0,1-.26.7,6.31,6.31,0,0,1-.4.77,7.21,7.21,0,0,1-.51.76q-.29.36-.6.69a4.34,4.34,0,0,1-.66.57,4,4,0,0,1-.69.39A2,2,0,0,1,1.54,5.36Z"/></svg>