<svg id="Capa_1" data-name="Capa 1" xmlns="http://www.w3.org/2000/svg" viewBox="0 0 9 5.33"><title>vectores</title><path d="M2.24,1.46a4.36,4.36,0,0,1,1-1.1,1.66,1.66,0,0,1,1-.35A1,1,0,0,1,5,.3a1.22,1.22,0,0,1,.27.85v.07a.19.19,0,0,1,0,.08,4,4,0,0,1,.93-1,1.58,1.58,0,0,1,1-.32,1,1,0,0,1,.77.28,1.12,1.12,0,0,1,.27.8,4.06,4.06,0,0,1-.16,1L7.68,3.47a3.74,3.74,0,0,0-.14.83.49.49,0,0,0,.07.31.24.24,0,0,0,.22.1.58.58,0,0,0,.34-.13,4.33,4.33,0,0,0,.52-.5l.31.3a5.24,5.24,0,0,1-.81.72,1.41,1.41,0,0,1-.79.23.69.69,0,0,1-.56-.25,1,1,0,0,1-.21-.64,4.51,4.51,0,0,1,.18-1l.24-.93c.08-.34.14-.59.17-.75a3.67,3.67,0,0,0,0-.39A.93.93,0,0,0,7.13.8a.47.47,0,0,0-.4-.16.85.85,0,0,0-.49.17,2.57,2.57,0,0,0-.54.52A4.57,4.57,0,0,0,5.23,2a3.83,3.83,0,0,0-.29.85L4.45,5.25H3.52l.62-2.74c.08-.34.13-.58.15-.74a2.27,2.27,0,0,0,0-.42A.87.87,0,0,0,4.2.8.54.54,0,0,0,3.77.64.85.85,0,0,0,3.3.81a2.51,2.51,0,0,0-.56.54,4.29,4.29,0,0,0-.46.72A4.34,4.34,0,0,0,2,2.91L1.49,5.25H.56l.78-3.42A3.85,3.85,0,0,0,1.46,1,.51.51,0,0,0,1.39.72a.25.25,0,0,0-.22-.1A.6.6,0,0,0,.82.76a3.24,3.24,0,0,0-.51.5L0,1A5.16,5.16,0,0,1,.82.23,1.33,1.33,0,0,1,1.57,0a.69.69,0,0,1,.54.22A.87.87,0,0,1,2.3.81a1.84,1.84,0,0,1-.12.63Z"/></svg>