<svg id="Capa_1" data-name="Capa 1" xmlns="http://www.w3.org/2000/svg" viewBox="0 0 140.29 17.46"><title>vectores</title><path d="M1.54,11.93a.45.45,0,0,1-.26-.08.48.48,0,0,1-.17-.22A1.39,1.39,0,0,1,1,11.29a2.77,2.77,0,0,1,0-.42,5.07,5.07,0,0,1,0-.66c0-.23.06-.47.1-.71L1.35,8a2.4,2.4,0,0,0,0-.24,1.31,1.31,0,0,0,0-.17.7.7,0,0,0,0-.28.2.2,0,0,0-.19-.11.43.43,0,0,0-.22.07L.7,7.43l-.23.21-.21.21L0,7.55a3.89,3.89,0,0,1,.36-.34A2.31,2.31,0,0,1,.75,6.9a1.88,1.88,0,0,1,.45-.22,1.27,1.27,0,0,1,.47-.09A.82.82,0,0,1,2,6.66a.7.7,0,0,1,.2.18.64.64,0,0,1,.1.24,1.18,1.18,0,0,1,0,.26v.15a.51.51,0,0,1,0,.13l-.3,2c0,.2-.06.4-.08.6s0,.37,0,.52a3.57,3.57,0,0,0,0,.37c0,.09.06.14.11.14a1,1,0,0,0,.44-.15A2.9,2.9,0,0,0,3,10.66a4.69,4.69,0,0,0,.59-.59,5.6,5.6,0,0,0,.54-.74,4.52,4.52,0,0,0,.38-.84A2.82,2.82,0,0,0,4.7,7.6a.51.51,0,0,0-.08-.3.33.33,0,0,0-.26-.11.59.59,0,0,0-.42.18,2.75,2.75,0,0,0-.4.46l-.31-.28a2.75,2.75,0,0,1,.68-.68,2.32,2.32,0,0,1,.41-.22,1.19,1.19,0,0,1,.41-.08.72.72,0,0,1,.56.2.86.86,0,0,1,.17.55,2.29,2.29,0,0,1-.09.59,5.2,5.2,0,0,1-.26.71,7,7,0,0,1-.4.76,7.21,7.21,0,0,1-.51.76,8,8,0,0,1-.6.69,4.34,4.34,0,0,1-.66.57,4,4,0,0,1-.69.39A2,2,0,0,1,1.54,11.93Z"/><path d="M9.79,7.93V7.21h6.64v.72Zm0,2.23V9.45h6.64v.71Z"/><path d="M25.79,4.74l-3.13,7.14h-.79v-.27l2.91-6.15V5.38H22.41a1.08,1.08,0,0,0-.35,0,.71.71,0,0,0-.23.12.51.51,0,0,0-.14.2,3.08,3.08,0,0,0-.17.49h-.46l.11-1.75h4.62Z"/><path d="M30.17,11a1.66,1.66,0,0,0,.42,0,.57.57,0,0,0,.26-.1.53.53,0,0,0,.16-.2l.14-.38h.46l-.1,1.58H27.08v-.26a6.59,6.59,0,0,1,.62-1.16A15.1,15.1,0,0,1,28.82,9c.42-.46.72-.8.9-1a4.89,4.89,0,0,0,.45-.67,2.3,2.3,0,0,0,.21-.54,1.68,1.68,0,0,0,.07-.5,1.91,1.91,0,0,0-.13-.71,1.08,1.08,0,0,0-.4-.49,1.17,1.17,0,0,0-.67-.18A1.37,1.37,0,0,0,27.89,6h-.65V5a5.92,5.92,0,0,1,1.22-.45,4.51,4.51,0,0,1,1-.14A2.3,2.3,0,0,1,31,4.83a1.61,1.61,0,0,1,.51,1.28,2.12,2.12,0,0,1-.06.52,1.88,1.88,0,0,1-.18.48,3.41,3.41,0,0,1-.32.5l-.45.55-.86.92A11.87,11.87,0,0,0,28.13,11Z"/><path d="M35.94,3.39l-.43,2h-.75l1-4.22q0-.21.06-.33a.82.82,0,0,0,0-.21.27.27,0,0,0,0-.13.26.26,0,0,0-.09-.09.44.44,0,0,0-.15,0l-.25,0,.06-.26,1.08,0h.29L36,3.05h.11A1.05,1.05,0,0,0,36.45,3a1.74,1.74,0,0,0,.34-.16,3.29,3.29,0,0,0,.33-.23,3.32,3.32,0,0,0,.27-.25,1.64,1.64,0,0,0,.19-.24.41.41,0,0,0,.08-.19.22.22,0,0,0-.07-.16.46.46,0,0,0-.23-.08l0-.25h1.42l.09.25-.47.39L38,2.42l-.43.32-.45.34c.06.2.13.4.19.6s.13.41.2.61.06.2.09.28a1.14,1.14,0,0,0,.09.19.36.36,0,0,0,.1.11.28.28,0,0,0,.13,0,.25.25,0,0,0,.12,0,.33.33,0,0,0,.13-.07.94.94,0,0,0,.16-.14l.21-.22.27.26L38.47,5a2.74,2.74,0,0,1-.31.23,1.11,1.11,0,0,1-.27.13.84.84,0,0,1-.27,0,.62.62,0,0,1-.4-.12A1,1,0,0,1,37,5a2.93,2.93,0,0,1-.19-.55c-.06-.22-.13-.46-.21-.73l-.05-.15a.22.22,0,0,0-.07-.09.15.15,0,0,0-.1,0h-.4Z"/><path d="M43,5.36h-.76q0-.25.12-.54c.05-.19.09-.39.14-.58s.09-.39.13-.59.09-.36.12-.53.06-.32.08-.45a2.24,2.24,0,0,0,0-.31A.61.61,0,0,0,42.74,2a.42.42,0,0,0-.31-.11A.67.67,0,0,0,42,2a1.58,1.58,0,0,0-.41.37,2.49,2.49,0,0,0-.35.52,2.16,2.16,0,0,0-.22.58l-.4,1.87h-.77l.59-2.56c0-.14.06-.27.08-.37s0-.19,0-.26-.08-.29-.23-.29a.4.4,0,0,0-.15,0L40,2l-.17.15-.22.21-.27-.25c.13-.13.25-.25.36-.34a2,2,0,0,1,.31-.24,1.3,1.3,0,0,1,.3-.13,1,1,0,0,1,.3,0,.53.53,0,0,1,.45.19.73.73,0,0,1,.16.5.91.91,0,0,1,0,.17.75.75,0,0,1,0,.16l0,0A3.13,3.13,0,0,1,42,1.61a1.34,1.34,0,0,1,.76-.26.86.86,0,0,1,.63.21.93.93,0,0,1,.2.63v.07a.15.15,0,0,1,0,.07h0a3,3,0,0,1,.73-.74,1.33,1.33,0,0,1,.75-.24.83.83,0,0,1,.62.22.89.89,0,0,1,.21.63,1.6,1.6,0,0,1,0,.33c0,.14-.06.29-.1.45l-.12.52c0,.17-.09.34-.13.5s0,.18-.05.25a1.24,1.24,0,0,0,0,.16s0,.08,0,.11a.31.31,0,0,0,0,.1.34.34,0,0,0,.06.22.23.23,0,0,0,.18.06l.14,0,.15-.09.17-.15c.07-.06.14-.14.22-.22l.27.26c-.13.13-.24.24-.35.33a2,2,0,0,1-.32.24,1.3,1.3,0,0,1-.3.13,1.06,1.06,0,0,1-.31,0,.6.6,0,0,1-.27-.06.51.51,0,0,1-.21-.15A.8.8,0,0,1,44.71,5a.93.93,0,0,1-.05-.29,3.4,3.4,0,0,1,.14-.83c.05-.17.1-.33.14-.49S45,3.09,45,3s.05-.25.07-.36a1.19,1.19,0,0,0,0-.25A.6.6,0,0,0,45,2a.34.34,0,0,0-.29-.11.69.69,0,0,0-.26.06,1.34,1.34,0,0,0-.27.17,2.29,2.29,0,0,0-.27.27,2,2,0,0,0-.25.33,1.72,1.72,0,0,0-.2.38,2,2,0,0,0-.14.39Z"/><path d="M41.68,16c0,.1,0,.18-.06.25a.5.5,0,0,0,0,.16.52.52,0,0,0,0,.11v.1a.34.34,0,0,0,0,.22.24.24,0,0,0,.18.06l.14,0a.6.6,0,0,0,.15-.09l.18-.15.21-.22.14.13.13.13c-.13.13-.25.25-.36.34a2,2,0,0,1-.32.24,1.45,1.45,0,0,1-.29.13,1.06,1.06,0,0,1-.31,0,.55.55,0,0,1-.26-.06.51.51,0,0,1-.21-.15.83.83,0,0,1-.14-.22.92.92,0,0,1,0-.29,2.38,2.38,0,0,1,0-.36,3.67,3.67,0,0,1,.09-.43c0-.15.07-.3.11-.45s.08-.3.11-.43.06-.26.09-.37a1.58,1.58,0,0,0,0-.26,1.34,1.34,0,0,0,0-.21.49.49,0,0,0-.06-.17.32.32,0,0,0-.12-.11.4.4,0,0,0-.2,0,.69.69,0,0,0-.4.14,1.86,1.86,0,0,0-.42.38,3.41,3.41,0,0,0-.36.52,2.19,2.19,0,0,0-.21.57c-.07.31-.13.62-.2.93s-.12.63-.19.94h-.75l.93-4.22c0-.13.05-.24.06-.32a.94.94,0,0,0,0-.22.27.27,0,0,0,0-.13s0-.06-.08-.09l-.15-.05-.25,0,.06-.26L40,12h.28l-.53,2.22h.05a4.74,4.74,0,0,1,.37-.39,1.76,1.76,0,0,1,.69-.44,1.41,1.41,0,0,1,.35,0,.86.86,0,0,1,.63.22.93.93,0,0,1,.2.63c0,.08,0,.18,0,.3s0,.25-.08.41Z"/><rect x="34.3" y="8.36" width="12.48" height="0.72"/><path d="M52.91,10.59a3.81,3.81,0,0,1,.08.74,1.93,1.93,0,0,1-.13.69,2.3,2.3,0,0,1-.41.62,5.72,5.72,0,0,1-.78.69L51.38,13a2.57,2.57,0,0,0,.4-.47,1.38,1.38,0,0,0,.17-.47A3.1,3.1,0,0,0,52,11.4c0-.28,0-.55,0-.81ZM53,7V8.23H51.9V7Z"/><path d="M59.44,10.46a4.67,4.67,0,0,1-1,1.11,1.59,1.59,0,0,1-1,.35,1.08,1.08,0,0,1-.92-.45,2.14,2.14,0,0,1-.32-1.25,4.58,4.58,0,0,1,.36-1.79,3.38,3.38,0,0,1,1-1.34A2.28,2.28,0,0,1,59,6.59a2.92,2.92,0,0,1,.61.07,2.25,2.25,0,0,1,.57.24l.28-1.25c0-.12.05-.25.07-.39a2.87,2.87,0,0,0,0-.38.44.44,0,0,0-.06-.25.37.37,0,0,0-.17-.12,2,2,0,0,0-.39,0L60,4.18l1.36,0h.31l-1.34,6a4,4,0,0,0-.12.8.62.62,0,0,0,.07.31.27.27,0,0,0,.22.1.6.6,0,0,0,.35-.14,4.27,4.27,0,0,0,.52-.5l.3.3a4.84,4.84,0,0,1-.83.74,1.37,1.37,0,0,1-.73.21.67.67,0,0,1-.54-.22.83.83,0,0,1-.2-.58,1.65,1.65,0,0,1,.13-.63Zm.36-1.9a4,4,0,0,0,.08-.74.87.87,0,0,0-.18-.61A.78.78,0,0,0,59.11,7a1.37,1.37,0,0,0-1,.44,3.16,3.16,0,0,0-.69,1.2,5,5,0,0,0-.25,1.51,1.71,1.71,0,0,0,.16.84.54.54,0,0,0,.51.27.83.83,0,0,0,.34-.07,1.45,1.45,0,0,0,.36-.23,2.91,2.91,0,0,0,.37-.4c.12-.15.23-.31.33-.46a3.65,3.65,0,0,0,.28-.56,4.84,4.84,0,0,0,.22-.77Z"/><path d="M66.31,7.93V7.21H73v.72Zm0,2.23V9.45H73v.71Z"/><path d="M80.6,11a1.66,1.66,0,0,0,.42,0,.57.57,0,0,0,.26-.1.53.53,0,0,0,.16-.2l.14-.38H82l-.1,1.58H77.51v-.26a6.59,6.59,0,0,1,.62-1.16A15.1,15.1,0,0,1,79.25,9c.42-.46.72-.8.9-1a4.89,4.89,0,0,0,.45-.67,2.3,2.3,0,0,0,.21-.54,1.68,1.68,0,0,0,.07-.5,1.91,1.91,0,0,0-.13-.71,1.08,1.08,0,0,0-.4-.49,1.17,1.17,0,0,0-.67-.18A1.37,1.37,0,0,0,78.32,6h-.65V5a5.92,5.92,0,0,1,1.22-.45,4.51,4.51,0,0,1,1-.14,2.3,2.3,0,0,1,1.52.44,1.61,1.61,0,0,1,.51,1.28,2.12,2.12,0,0,1-.06.52,1.88,1.88,0,0,1-.18.48,3.41,3.41,0,0,1-.32.5l-.45.55-.86.92A11.87,11.87,0,0,0,78.56,11Zm5.09.94a5.43,5.43,0,0,1-2-.38V10.4h.65a1.54,1.54,0,0,0,.49.81,1.35,1.35,0,0,0,.85.26A1.38,1.38,0,0,0,86.81,11a2,2,0,0,0,.37-1.29A2.06,2.06,0,0,0,87,8.8a1.19,1.19,0,0,0-.52-.54,1.71,1.71,0,0,0-.77-.17,3.83,3.83,0,0,0-.63.05,5.08,5.08,0,0,0-.56.14L84.06,8V4.48h3a.82.82,0,0,0,.27,0,.3.3,0,0,0,.13-.09.92.92,0,0,0,.11-.24H88l-.08,1.26h-3.1V7.74a2.89,2.89,0,0,1,.61-.18,3.68,3.68,0,0,1,.66-.06,2.34,2.34,0,0,1,1.14.27,1.81,1.81,0,0,1,.76.74,2.24,2.24,0,0,1,.27,1.12,2.45,2.45,0,0,1-.3,1.24,2,2,0,0,1-.87.79,3.21,3.21,0,0,1-1.36.26Z"/><path d="M91.89,9.62a1.17,1.17,0,0,0-.1-.29.33.33,0,0,0-.13-.11l-.25,0H91l-.56,2.64h-.93l1.38-6.16c0-.21.08-.37.1-.49a1.89,1.89,0,0,0,0-.31.36.36,0,0,0-.13-.32,1.11,1.11,0,0,0-.5-.1l.07-.28,1.36,0h.31l-1,4.71h.17a1.63,1.63,0,0,0,.91-.36,6,6,0,0,0,.8-.65.84.84,0,0,0,.31-.58c0-.18-.13-.28-.37-.3L93,6.69h1.75l.1.26c-.3.27-.62.53-.95.79l-1.34,1,.53,1.94a1.47,1.47,0,0,0,.12.36.45.45,0,0,0,.11.17.36.36,0,0,0,.19.05.59.59,0,0,0,.33-.15,3,3,0,0,0,.44-.44l.31.3a4.58,4.58,0,0,1-.8.72,1.2,1.2,0,0,1-.62.19.79.79,0,0,1-.58-.2,1.47,1.47,0,0,1-.34-.7Z"/><path d="M97.54,8.05a4.49,4.49,0,0,1,1-1.09,1.68,1.68,0,0,1,1-.36,1,1,0,0,1,.79.29,1.22,1.22,0,0,1,.27.85v.08a.25.25,0,0,1,0,.08,3.84,3.84,0,0,1,.93-1,1.67,1.67,0,0,1,1-.32,1,1,0,0,1,.76.28,1.15,1.15,0,0,1,.27.81,4,4,0,0,1-.16,1L103,10.07a4.35,4.35,0,0,0-.14.83.53.53,0,0,0,.07.31.26.26,0,0,0,.22.1.58.58,0,0,0,.34-.14,3.18,3.18,0,0,0,.52-.5l.31.3a4.75,4.75,0,0,1-.81.72,1.33,1.33,0,0,1-.79.23.69.69,0,0,1-.56-.25.94.94,0,0,1-.21-.63,4.34,4.34,0,0,1,.18-1l.24-.94c.08-.33.14-.58.17-.75a3.67,3.67,0,0,0,0-.39.86.86,0,0,0-.13-.54.46.46,0,0,0-.4-.16,1,1,0,0,0-.49.17,2.41,2.41,0,0,0-.54.53,4.51,4.51,0,0,0-.47.7,3.53,3.53,0,0,0-.28.85l-.5,2.36h-.93l.62-2.74c.08-.33.13-.58.16-.74a3.73,3.73,0,0,0,0-.41.9.9,0,0,0-.14-.56.53.53,0,0,0-.43-.16.93.93,0,0,0-.47.17,2.29,2.29,0,0,0-.55.54,3.82,3.82,0,0,0-.47.72,4.34,4.34,0,0,0-.28.84l-.51,2.34h-.93l.78-3.42a3.76,3.76,0,0,0,.12-.8.53.53,0,0,0-.07-.31.26.26,0,0,0-.22-.1.6.6,0,0,0-.35.14,3.24,3.24,0,0,0-.51.5l-.31-.3a5.91,5.91,0,0,1,.82-.73,1.35,1.35,0,0,1,.75-.23.68.68,0,0,1,.54.23.85.85,0,0,1,.19.58,1.84,1.84,0,0,1-.12.63Z"/><path d="M106.34,10.59a3.81,3.81,0,0,1,.08.74,1.93,1.93,0,0,1-.13.69,2.3,2.3,0,0,1-.41.62,5.72,5.72,0,0,1-.78.69l-.29-.33a2.57,2.57,0,0,0,.4-.47,1.38,1.38,0,0,0,.17-.47,3.1,3.1,0,0,0,.06-.66c0-.28,0-.55,0-.81ZM106.41,7V8.23h-1.08V7Z"/><path d="M113,10.82a3.8,3.8,0,0,1-.9.84,1.7,1.7,0,0,1-.91.26A1,1,0,0,1,110,10.79a3.42,3.42,0,0,1,.09-.76l.64-2.8h-.91l.08-.37a2.54,2.54,0,0,0,.49-.05.85.85,0,0,0,.27-.12.67.67,0,0,0,.2-.21,3,3,0,0,0,.18-.36c.06-.15.15-.4.26-.77h.74l-.29,1.34h1.64l-.12.54h-1.64l-.48,2.09c-.09.41-.15.7-.18.88s0,.32,0,.43c0,.44.19.66.56.66a.88.88,0,0,0,.5-.18,3.43,3.43,0,0,0,.64-.61Z"/><path d="M117.7,7.93V7.21h6.64v.72Zm0,2.23V9.45h6.64v.71Z"/><path d="M130.93,11.92a5.43,5.43,0,0,1-2-.38V10.4h.65a1.54,1.54,0,0,0,.49.81,1.34,1.34,0,0,0,.84.26,1.39,1.39,0,0,0,1.09-.43,2,2,0,0,0,.37-1.29,2.06,2.06,0,0,0-.2-.95,1.19,1.19,0,0,0-.52-.54,1.71,1.71,0,0,0-.77-.17,3.83,3.83,0,0,0-.63.05,5.08,5.08,0,0,0-.56.14L129.3,8V4.48h3a.82.82,0,0,0,.27,0,.3.3,0,0,0,.13-.09.92.92,0,0,0,.11-.24h.42l-.08,1.26H130V7.74a2.89,2.89,0,0,1,.61-.18,3.68,3.68,0,0,1,.66-.06,2.34,2.34,0,0,1,1.14.27,1.81,1.81,0,0,1,.76.74,2.24,2.24,0,0,1,.27,1.12,2.45,2.45,0,0,1-.3,1.24,2,2,0,0,1-.87.79,3.21,3.21,0,0,1-1.36.26Z"/><path d="M136.17,5.68a4.13,4.13,0,0,0,.13-.8.36.36,0,0,0-.13-.32,1.11,1.11,0,0,0-.5-.1l.07-.28,1.36,0h.31l-.92,3.74.06,0a4.35,4.35,0,0,1,1-1,1.65,1.65,0,0,1,.92-.3,1,1,0,0,1,.77.29,1.12,1.12,0,0,1,.27.8,4,4,0,0,1-.16,1L139,10.07a3.66,3.66,0,0,0-.14.83.53.53,0,0,0,.07.31.26.26,0,0,0,.22.1.58.58,0,0,0,.34-.14,3.64,3.64,0,0,0,.52-.5l.31.3a5.3,5.3,0,0,1-.85.75,1.36,1.36,0,0,1-.75.2.71.71,0,0,1-.56-.24,1,1,0,0,1-.2-.64,4.77,4.77,0,0,1,.17-1l.24-.94c.08-.33.13-.58.16-.75a2.57,2.57,0,0,0,.05-.39.91.91,0,0,0-.13-.54.47.47,0,0,0-.4-.16.9.9,0,0,0-.49.18A3,3,0,0,0,137,8a4.39,4.39,0,0,0-.47.72,3.34,3.34,0,0,0-.28.81l-.49,2.34h-.93Z"/></svg>