<svg id="Capa_1" data-name="Capa 1" xmlns="http://www.w3.org/2000/svg" viewBox="0 0 128.12 16.08"><title>vectores</title><path d="M1.54,10.58a.45.45,0,0,1-.26-.08.48.48,0,0,1-.17-.22A1.39,1.39,0,0,1,1,9.94a2.77,2.77,0,0,1,0-.42,5.07,5.07,0,0,1,0-.66c0-.23.06-.47.1-.71l.22-1.49c0-.09,0-.17,0-.24a1.31,1.31,0,0,0,0-.17.7.7,0,0,0,0-.28.2.2,0,0,0-.19-.11.43.43,0,0,0-.22.07,1.58,1.58,0,0,0-.24.15l-.23.21c-.08.08-.15.14-.21.21L0,6.2c.11-.12.23-.23.36-.35a2.88,2.88,0,0,1,.39-.3,1.88,1.88,0,0,1,.45-.22,1.27,1.27,0,0,1,.47-.09A.82.82,0,0,1,2,5.31a.58.58,0,0,1,.2.18.64.64,0,0,1,.1.24,1.18,1.18,0,0,1,0,.26v.15a.59.59,0,0,1,0,.13l-.3,2c0,.2-.06.4-.08.6s0,.37,0,.52a3.57,3.57,0,0,0,0,.37c0,.09.06.14.11.14a1,1,0,0,0,.44-.15A2.9,2.9,0,0,0,3,9.31a4.69,4.69,0,0,0,.59-.59A5.6,5.6,0,0,0,4.17,8a4.52,4.52,0,0,0,.38-.84,2.82,2.82,0,0,0,.15-.89A.51.51,0,0,0,4.62,6a.33.33,0,0,0-.26-.11A.59.59,0,0,0,3.94,6a2.75,2.75,0,0,0-.4.46L3.23,6.2a2.75,2.75,0,0,1,.68-.68,2.32,2.32,0,0,1,.41-.22,1.19,1.19,0,0,1,.41-.08.72.72,0,0,1,.56.2A.86.86,0,0,1,5.46,6a2.29,2.29,0,0,1-.09.59,4.66,4.66,0,0,1-.26.7,6.31,6.31,0,0,1-.4.77,7.21,7.21,0,0,1-.51.76,8,8,0,0,1-.6.69,4.34,4.34,0,0,1-.66.57,4,4,0,0,1-.69.39A2,2,0,0,1,1.54,10.58Z"/><path d="M9.79,6.57V5.86h6.64v.71Zm0,2.24V8.09h6.64v.72Z"/><path d="M24.05,9.63a2.3,2.3,0,0,0,.42,0,.57.57,0,0,0,.26-.1.53.53,0,0,0,.16-.2L25,8.91h.46l-.1,1.58H21v-.26a6.59,6.59,0,0,1,.62-1.16,15.1,15.1,0,0,1,1.12-1.4c.42-.46.72-.8.9-1A4.89,4.89,0,0,0,24.05,6a2.3,2.3,0,0,0,.21-.54,1.68,1.68,0,0,0,.07-.5,1.91,1.91,0,0,0-.13-.71,1.08,1.08,0,0,0-.4-.49,1.17,1.17,0,0,0-.67-.18,1.37,1.37,0,0,0-1.36,1.12h-.65v-1a5.92,5.92,0,0,1,1.22-.45,4.51,4.51,0,0,1,1-.14,2.3,2.3,0,0,1,1.52.44,1.61,1.61,0,0,1,.51,1.28,2.12,2.12,0,0,1-.06.52,1.88,1.88,0,0,1-.18.48,3.41,3.41,0,0,1-.32.5l-.45.55-.86.92A11.87,11.87,0,0,0,22,9.63Zm5.09.94a5.43,5.43,0,0,1-1.95-.38V9.05h.65a1.54,1.54,0,0,0,.49.81,1.35,1.35,0,0,0,.85.26,1.38,1.38,0,0,0,1.08-.43,2,2,0,0,0,.37-1.29,2.06,2.06,0,0,0-.2-1,1.19,1.19,0,0,0-.52-.54,1.71,1.71,0,0,0-.77-.17,3.83,3.83,0,0,0-.63,0,5.08,5.08,0,0,0-.56.14l-.44-.25V3.13h3a.82.82,0,0,0,.27,0A.3.3,0,0,0,30.88,3,.92.92,0,0,0,31,2.77h.42L31.33,4h-3.1V6.39a2.89,2.89,0,0,1,.61-.18,3.68,3.68,0,0,1,.66-.06,2.34,2.34,0,0,1,1.14.27,1.81,1.81,0,0,1,.76.74,2.24,2.24,0,0,1,.27,1.12,2.45,2.45,0,0,1-.3,1.24,1.89,1.89,0,0,1-.87.78,3.2,3.2,0,0,1-1.36.27Z"/><path d="M38.05,4h-.76q0-.25.12-.54c.05-.19.09-.39.14-.58s.09-.39.13-.59.09-.37.12-.53.06-.32.08-.45a2.24,2.24,0,0,0,0-.31.61.61,0,0,0-.09-.37.38.38,0,0,0-.31-.11.67.67,0,0,0-.4.14A1.58,1.58,0,0,0,36.7,1a2.49,2.49,0,0,0-.35.52,2.16,2.16,0,0,0-.22.58L35.73,4H35l.59-2.56c0-.14.06-.27.08-.37s0-.19,0-.26-.08-.29-.23-.29a.4.4,0,0,0-.15,0l-.15.09L35,.8,34.73,1,34.46.76c.13-.13.25-.25.36-.34a2,2,0,0,1,.31-.24,1.3,1.3,0,0,1,.3-.13,1,1,0,0,1,.3,0,.53.53,0,0,1,.45.19.73.73,0,0,1,.16.5,1,1,0,0,1,0,.17.94.94,0,0,1,0,.16l0,0a3.13,3.13,0,0,1,.75-.78A1.34,1.34,0,0,1,37.84,0a.86.86,0,0,1,.63.21.93.93,0,0,1,.2.63V.91a.15.15,0,0,1,0,.07h0a3,3,0,0,1,.73-.74A1.33,1.33,0,0,1,40.16,0a.8.8,0,0,1,.62.22A.89.89,0,0,1,41,.85a1.6,1.6,0,0,1,0,.33c0,.14-.06.29-.1.45l-.12.52c0,.17-.09.34-.13.5s0,.18-.05.25a1.24,1.24,0,0,0,0,.16s0,.08,0,.11a.31.31,0,0,0,0,.1.34.34,0,0,0,.06.22.23.23,0,0,0,.18.06l.14,0L41,3.44l.17-.15c.07-.06.14-.14.22-.22l.27.26c-.13.13-.24.24-.35.33A3,3,0,0,1,41,3.9a1.3,1.3,0,0,1-.3.13,1.06,1.06,0,0,1-.31,0A.6.6,0,0,1,40.13,4a.51.51,0,0,1-.21-.15.8.8,0,0,1-.13-.22.93.93,0,0,1,0-.29,3.4,3.4,0,0,1,.14-.83c0-.17.1-.33.14-.49s.07-.3.1-.43.05-.25.07-.36a1.19,1.19,0,0,0,0-.25.58.58,0,0,0-.09-.36.34.34,0,0,0-.29-.11.69.69,0,0,0-.26.06,1.34,1.34,0,0,0-.27.17A2.29,2.29,0,0,0,39,1a2,2,0,0,0-.25.33,1.72,1.72,0,0,0-.2.38,2,2,0,0,0-.14.39Z"/><path d="M39.1,13.07a.84.84,0,0,0-.23-.52.9.9,0,0,0-.59-.17,1.36,1.36,0,0,0-.3,0,.9.9,0,0,0-.24.12.55.55,0,0,0-.15.19.44.44,0,0,0-.06.23.76.76,0,0,0,0,.21.58.58,0,0,0,.11.18,1.22,1.22,0,0,0,.23.19,3.57,3.57,0,0,0,.38.22,2.55,2.55,0,0,1,.42.27,1.31,1.31,0,0,1,.27.25.79.79,0,0,1,.13.28,1.15,1.15,0,0,1,0,.33,1.18,1.18,0,0,1-.11.5,1.13,1.13,0,0,1-.32.37,1.8,1.8,0,0,1-.48.24,2.31,2.31,0,0,1-.61.08,5.65,5.65,0,0,1-.71,0,4.18,4.18,0,0,1-.73-.16l.2-.89h.34a.72.72,0,0,0,.23.54.94.94,0,0,0,.65.19,1,1,0,0,0,.62-.17.56.56,0,0,0,.22-.47,1.54,1.54,0,0,0,0-.24.52.52,0,0,0-.11-.19,1.51,1.51,0,0,0-.22-.19l-.36-.22a2.78,2.78,0,0,1-.4-.26,1.38,1.38,0,0,1-.28-.25,1.28,1.28,0,0,1-.16-.27,1,1,0,0,1,0-.3,1.06,1.06,0,0,1,.4-.82,1.23,1.23,0,0,1,.47-.24,1.89,1.89,0,0,1,.6-.09,5.16,5.16,0,0,1,.71.05,4.26,4.26,0,0,1,.62.13l-.19.89Z"/><rect x="34.3" y="7.01" width="7.56" height="0.72"/><path d="M48.11,9.24a3.81,3.81,0,0,1,.08.74,1.93,1.93,0,0,1-.13.69,2.3,2.3,0,0,1-.41.62,5.72,5.72,0,0,1-.78.69l-.29-.33a3,3,0,0,0,.4-.47,1.38,1.38,0,0,0,.17-.47,3.1,3.1,0,0,0,.06-.66c0-.28,0-.55,0-.81Zm.07-3.62V6.88H47.1V5.62Z"/><path d="M54.64,9.11a4.67,4.67,0,0,1-1,1.11,1.59,1.59,0,0,1-1,.35,1.08,1.08,0,0,1-.92-.45,2.16,2.16,0,0,1-.32-1.25,4.58,4.58,0,0,1,.36-1.79,3.38,3.38,0,0,1,1-1.34,2.28,2.28,0,0,1,1.42-.5,2.92,2.92,0,0,1,.61.07,2.25,2.25,0,0,1,.57.24l.28-1.25c0-.12,0-.25.07-.39a2.87,2.87,0,0,0,0-.38.44.44,0,0,0-.06-.25.37.37,0,0,0-.17-.12,2,2,0,0,0-.39-.05l.06-.28,1.36-.05h.31l-1.34,6a4,4,0,0,0-.12.79.63.63,0,0,0,.07.32.27.27,0,0,0,.22.09.59.59,0,0,0,.35-.13,4.27,4.27,0,0,0,.52-.5l.3.3a4.84,4.84,0,0,1-.83.74,1.37,1.37,0,0,1-.73.21.67.67,0,0,1-.54-.22.83.83,0,0,1-.2-.58,1.65,1.65,0,0,1,.13-.63ZM55,7.21a4,4,0,0,0,.08-.74.87.87,0,0,0-.18-.61.78.78,0,0,0-.59-.19,1.37,1.37,0,0,0-1,.44,3.16,3.16,0,0,0-.69,1.2,5,5,0,0,0-.25,1.51,1.71,1.71,0,0,0,.16.84.54.54,0,0,0,.51.27.83.83,0,0,0,.34-.07,1.45,1.45,0,0,0,.36-.23,2.91,2.91,0,0,0,.37-.4c.12-.15.23-.31.33-.46a4.17,4.17,0,0,0,.28-.56A4.84,4.84,0,0,0,55,7.44Z"/><path d="M61.51,6.57V5.86h6.64v.71Zm0,2.24V8.09h6.64v.72Z"/><path d="M74.77,10.57a5.43,5.43,0,0,1-2-.38V9.05h.65a1.54,1.54,0,0,0,.49.81,1.34,1.34,0,0,0,.84.26,1.39,1.39,0,0,0,1.09-.43,2,2,0,0,0,.37-1.29,2.06,2.06,0,0,0-.2-1,1.19,1.19,0,0,0-.52-.54,1.71,1.71,0,0,0-.77-.17,3.83,3.83,0,0,0-.63,0,5.08,5.08,0,0,0-.56.14l-.44-.25V3.13h3a.82.82,0,0,0,.27,0A.3.3,0,0,0,76.51,3a.92.92,0,0,0,.11-.24H77L77,4h-3.1V6.39a2.89,2.89,0,0,1,.61-.18,3.68,3.68,0,0,1,.66-.06,2.34,2.34,0,0,1,1.14.27,1.81,1.81,0,0,1,.76.74,2.24,2.24,0,0,1,.27,1.12A2.45,2.45,0,0,1,77,9.52a1.89,1.89,0,0,1-.87.78,3.2,3.2,0,0,1-1.36.27Z"/><path d="M80.5,6.7a4.49,4.49,0,0,1,1-1.09,1.68,1.68,0,0,1,1-.36,1,1,0,0,1,.79.29,1.22,1.22,0,0,1,.27.85v.08a.25.25,0,0,1,0,.08,3.84,3.84,0,0,1,.93-1,1.67,1.67,0,0,1,1-.32,1,1,0,0,1,.76.28,1.13,1.13,0,0,1,.27.81,4,4,0,0,1-.16,1l-.35,1.41a4.6,4.6,0,0,0-.14.83.54.54,0,0,0,.07.32.25.25,0,0,0,.22.09.56.56,0,0,0,.34-.13,3.18,3.18,0,0,0,.52-.5l.31.3a4.75,4.75,0,0,1-.81.72,1.33,1.33,0,0,1-.79.23.69.69,0,0,1-.56-.25.94.94,0,0,1-.21-.63,4.34,4.34,0,0,1,.18-1l.24-.94c.08-.33.14-.58.17-.75a3.67,3.67,0,0,0,0-.39A.86.86,0,0,0,85.39,6a.46.46,0,0,0-.4-.16,1,1,0,0,0-.49.17,2.41,2.41,0,0,0-.54.53,4.51,4.51,0,0,0-.47.7,3.53,3.53,0,0,0-.28.85l-.5,2.36h-.93l.62-2.74c.08-.33.13-.58.16-.74a3.73,3.73,0,0,0,0-.41A.9.9,0,0,0,82.46,6,.53.53,0,0,0,82,5.88a.93.93,0,0,0-.47.17,2.29,2.29,0,0,0-.55.54,3.82,3.82,0,0,0-.47.72,4.34,4.34,0,0,0-.28.84l-.51,2.34h-.93l.78-3.42a3.76,3.76,0,0,0,.12-.8A.51.51,0,0,0,79.65,6a.26.26,0,0,0-.22-.1.6.6,0,0,0-.35.14,3.24,3.24,0,0,0-.51.5l-.31-.3a5.91,5.91,0,0,1,.82-.73,1.35,1.35,0,0,1,.75-.23.68.68,0,0,1,.54.23.85.85,0,0,1,.19.58,1.84,1.84,0,0,1-.12.63Z"/><path d="M89.42,9.24a3.81,3.81,0,0,1,.08.74,1.93,1.93,0,0,1-.13.69,2.3,2.3,0,0,1-.41.62,5.72,5.72,0,0,1-.78.69l-.29-.33a3,3,0,0,0,.4-.47,1.38,1.38,0,0,0,.17-.47,3.1,3.1,0,0,0,.06-.66c0-.28,0-.55,0-.81Zm.07-3.62V6.88H88.41V5.62Z"/><path d="M95.92,9.47a3.54,3.54,0,0,1-.9.83,1.72,1.72,0,0,1-.91.27A1,1,0,0,1,93,9.44a3.42,3.42,0,0,1,.09-.76l.64-2.8H92.8l.08-.37a2.54,2.54,0,0,0,.49,0,.85.85,0,0,0,.27-.12.62.62,0,0,0,.2-.22A2.25,2.25,0,0,0,94,4.77c.06-.15.15-.4.26-.77H95l-.29,1.33h1.64l-.12.55H94.61L94.13,8c-.09.41-.15.7-.18.88a4.28,4.28,0,0,0,0,.43c0,.44.19.66.56.66a.88.88,0,0,0,.5-.18,3.43,3.43,0,0,0,.64-.61Z"/><path d="M100.66,6.57V5.86h6.64v.71Zm0,2.24V8.09h6.64v.72Z"/><path d="M114.88,9.08a2.67,2.67,0,0,0,0,.47.58.58,0,0,0,.13.26.57.57,0,0,0,.25.16,2.24,2.24,0,0,0,.42.08,5.73,5.73,0,0,0,.67,0v.4h-4v-.4a6,6,0,0,0,.85-.07.89.89,0,0,0,.39-.14.5.5,0,0,0,.2-.25,1.85,1.85,0,0,0,.06-.55V4.71a.56.56,0,0,0-.07-.32.29.29,0,0,0-.22-.1,1.09,1.09,0,0,0-.49.18c-.22.12-.48.28-.79.49l-.24-.41L114.61,3h.3q0,.53,0,1.44Zm5.37,1.49a1.89,1.89,0,0,1-1.73-.91A5.37,5.37,0,0,1,118,6.88a7.81,7.81,0,0,1,.17-1.72A3.74,3.74,0,0,1,118.61,4a2,2,0,0,1,.76-.7,2.13,2.13,0,0,1,1-.23,1.94,1.94,0,0,1,1.75.91,5.2,5.2,0,0,1,.58,2.76,5.52,5.52,0,0,1-.62,2.89A2,2,0,0,1,120.25,10.57ZM119,6.71a7.36,7.36,0,0,0,.33,2.58,1.08,1.08,0,0,0,1,.83,1,1,0,0,0,1-.78A6.7,6.7,0,0,0,121.62,7a9.93,9.93,0,0,0-.16-2,2.54,2.54,0,0,0-.45-1.1.89.89,0,0,0-.7-.34.92.92,0,0,0-.62.22,1.51,1.51,0,0,0-.41.64,4.77,4.77,0,0,0-.22,1C119,5.77,119,6.22,119,6.71Z"/><path d="M127.44,6.64a1.15,1.15,0,0,0-.32-.72,1.1,1.1,0,0,0-.8-.25,1,1,0,0,0-.69.22.68.68,0,0,0-.27.57.74.74,0,0,0,.07.34.93.93,0,0,0,.27.33,5.53,5.53,0,0,0,.64.44,4.12,4.12,0,0,1,.54.37,1.74,1.74,0,0,1,.33.34,1.62,1.62,0,0,1,.17.35,2,2,0,0,1,.05.45,1.31,1.31,0,0,1-.25.82,1.52,1.52,0,0,1-.7.51,2.83,2.83,0,0,1-1,.17,5.14,5.14,0,0,1-.88-.07,6,6,0,0,1-1-.23l.26-1.17h.42a1.15,1.15,0,0,0,.29.78,1.18,1.18,0,0,0,.86.26,1.21,1.21,0,0,0,.8-.23.77.77,0,0,0,.29-.64,1,1,0,0,0-.08-.42,1,1,0,0,0-.27-.34,3.67,3.67,0,0,0-.58-.4,4.91,4.91,0,0,1-.65-.46,1.49,1.49,0,0,1-.36-.45,1.2,1.2,0,0,1-.12-.55,1.3,1.3,0,0,1,.23-.75,1.53,1.53,0,0,1,.66-.49,2.7,2.7,0,0,1,1-.17,6.32,6.32,0,0,1,.91.06,5,5,0,0,1,.83.2l-.25,1.13Z"/></svg>