<svg id="Capa_1" data-name="Capa 1" xmlns="http://www.w3.org/2000/svg" viewBox="0 0 5.61 8.78"><title>vectores</title><path d="M1.54,8.78a.38.38,0,0,1-.26-.08.48.48,0,0,1-.17-.22A1.44,1.44,0,0,1,1,8.15a2.9,2.9,0,0,1,0-.43,5.18,5.18,0,0,1,0-.66c0-.23.06-.47.1-.7l.22-1.5a2.4,2.4,0,0,0,0-.24,1.31,1.31,0,0,0,0-.17.74.74,0,0,0,0-.28.2.2,0,0,0-.19-.11.55.55,0,0,0-.22.07,1.11,1.11,0,0,0-.24.16l-.23.2L.26,4.7,0,4.4a3.89,3.89,0,0,1,.36-.34,2.31,2.31,0,0,1,.39-.31,1.88,1.88,0,0,1,.45-.22,1.27,1.27,0,0,1,.47-.09A.82.82,0,0,1,2,3.51a.7.7,0,0,1,.2.18.64.64,0,0,1,.1.24,1.18,1.18,0,0,1,0,.26v.15a.51.51,0,0,1,0,.13l-.3,2c0,.21-.06.41-.08.6s0,.37,0,.52a3.57,3.57,0,0,0,0,.37c0,.09.06.14.11.14a1,1,0,0,0,.44-.14A3.52,3.52,0,0,0,3,7.51a4.69,4.69,0,0,0,.59-.59,5.6,5.6,0,0,0,.54-.74,4.52,4.52,0,0,0,.38-.84,2.77,2.77,0,0,0,.15-.89.51.51,0,0,0-.08-.3A.33.33,0,0,0,4.36,4a.59.59,0,0,0-.42.18,3.22,3.22,0,0,0-.4.46L3.23,4.4a2.75,2.75,0,0,1,.68-.68,2.32,2.32,0,0,1,.41-.22,1.19,1.19,0,0,1,.41-.08.69.69,0,0,1,.56.21.81.81,0,0,1,.17.54,2.29,2.29,0,0,1-.09.59,5.2,5.2,0,0,1-.26.71,7,7,0,0,1-.4.76A7.21,7.21,0,0,1,4.2,7a6.75,6.75,0,0,1-.6.69,4.34,4.34,0,0,1-.66.57,4,4,0,0,1-.69.39A2,2,0,0,1,1.54,8.78Z"/><polygon points="5.61 1.48 4.25 2.65 3.97 2.33 4.83 1.58 1.54 1.58 1.54 1.07 4.83 1.07 3.97 0.32 4.25 0 5.61 1.17 5.61 1.48"/></svg>