<svg id="Capa_1" data-name="Capa 1" xmlns="http://www.w3.org/2000/svg" viewBox="0 0 30.44 7.8"><defs><style>.cls-1{fill:#e52421;}</style></defs><title>vectores</title><path class="cls-1" d="M3.12,6.7a4.2,4.2,0,0,1-.91.83,1.69,1.69,0,0,1-.91.27A1,1,0,0,1,.18,6.66,3.49,3.49,0,0,1,.27,5.9L.91,3.11H0l.08-.38a1.9,1.9,0,0,0,.48,0,.78.78,0,0,0,.28-.11A.86.86,0,0,0,1,2.35,2,2,0,0,0,1.22,2c.06-.14.14-.4.26-.76h.74l-.3,1.33H3.56l-.12.55H1.81L1.33,5.2a7.5,7.5,0,0,0-.18.87,2.62,2.62,0,0,0,0,.43c0,.45.19.67.56.67A.93.93,0,0,0,2.17,7a3.25,3.25,0,0,0,.63-.62Z"/><path d="M7.85,3.8V3.08h6.64V3.8ZM7.85,6V5.32h6.64V6Z"/><path d="M21.09,7.8a5.66,5.66,0,0,1-1.95-.38V6.27h.65a1.54,1.54,0,0,0,.49.81,1.28,1.28,0,0,0,.84.26,1.35,1.35,0,0,0,1.09-.43,2,2,0,0,0,.36-1.29,2,2,0,0,0-.19-.94,1.28,1.28,0,0,0-.53-.55A1.64,1.64,0,0,0,21.09,4a3.77,3.77,0,0,0-.63,0,3.45,3.45,0,0,0-.57.15l-.43-.26V.36h3a.91.91,0,0,0,.27,0,.31.31,0,0,0,.13-.1A.81.81,0,0,0,22.94,0h.42l-.08,1.25h-3.1V3.62a2.89,2.89,0,0,1,.61-.18,3.68,3.68,0,0,1,.66-.06,2.44,2.44,0,0,1,1.13.26,1.86,1.86,0,0,1,.77.75,2.23,2.23,0,0,1,.27,1.11,2.4,2.4,0,0,1-.3,1.24,2,2,0,0,1-.88.79,3.13,3.13,0,0,1-1.35.27Z"/><path d="M26.33,1.55a4,4,0,0,0,.13-.8.34.34,0,0,0-.14-.31,1,1,0,0,0-.49-.11l.06-.28,1.37,0h.31l-.93,3.73.07,0a4.08,4.08,0,0,1,1-1,1.66,1.66,0,0,1,.91-.31,1,1,0,0,1,.78.29,1.12,1.12,0,0,1,.27.8,4.65,4.65,0,0,1-.16,1l-.35,1.41a3.94,3.94,0,0,0-.15.83.59.59,0,0,0,.07.31.25.25,0,0,0,.22.1.59.59,0,0,0,.35-.13,4.58,4.58,0,0,0,.52-.51l.3.31a4.56,4.56,0,0,1-.85.75,1.44,1.44,0,0,1-.74.2.68.68,0,0,1-.56-.25,1,1,0,0,1-.21-.64,4.42,4.42,0,0,1,.18-1L28.49,5c.08-.34.14-.59.17-.75a2.31,2.31,0,0,0,0-.39,1,1,0,0,0-.12-.55.5.5,0,0,0-.41-.15.93.93,0,0,0-.49.18,2.68,2.68,0,0,0-.56.56,3.77,3.77,0,0,0-.47.71,3.28,3.28,0,0,0-.28.82l-.49,2.33H25Z"/></svg>