<svg id="Capa_1" data-name="Capa 1" xmlns="http://www.w3.org/2000/svg" viewBox="0 0 4.47 5.33"><title>vectores</title><path d="M3.8,1.4A1.18,1.18,0,0,0,3.48.67,1.11,1.11,0,0,0,2.67.42,1,1,0,0,0,2,.64a.72.72,0,0,0-.26.57.78.78,0,0,0,.07.35,1,1,0,0,0,.27.32,4.5,4.5,0,0,0,.64.44,4.94,4.94,0,0,1,.54.37A2,2,0,0,1,3.56,3a1.29,1.29,0,0,1,.18.35,2,2,0,0,1,0,.45,1.32,1.32,0,0,1-.26.82,1.49,1.49,0,0,1-.69.51,2.62,2.62,0,0,1-1,.17A5.14,5.14,0,0,1,1,5.26,6,6,0,0,1,0,5L.26,3.86H.68A1.09,1.09,0,0,0,1,4.64a1.18,1.18,0,0,0,.86.27,1.27,1.27,0,0,0,.8-.23A.8.8,0,0,0,2.92,4a1.08,1.08,0,0,0-.08-.42,1.19,1.19,0,0,0-.27-.34A3.67,3.67,0,0,0,2,2.87a4.85,4.85,0,0,1-.66-.46A1.61,1.61,0,0,1,1,2a1.18,1.18,0,0,1-.12-.55A1.25,1.25,0,0,1,1.09.67a1.42,1.42,0,0,1,.66-.5,2.7,2.7,0,0,1,1-.17,6.32,6.32,0,0,1,.91.06,4.67,4.67,0,0,1,.82.2L4.23,1.4Z"/></svg>