<svg id="Capa_1" data-name="Capa 1" xmlns="http://www.w3.org/2000/svg" viewBox="0 0 10.83 7.53"><title>vectores</title><path d="M0,7.44.07,7.1,4.33,0h.78l.62,7.1-.07.34Zm1.14-.8H4.72L4.49,3.55c-.08-1.13-.12-1.92-.12-2.36H4.3Zm9.25-.21a4.2,4.2,0,0,1-.91.83,1.69,1.69,0,0,1-.91.27A1,1,0,0,1,7.45,6.39a3.49,3.49,0,0,1,.09-.76l.64-2.79H7.27l.08-.38a2.68,2.68,0,0,0,.48,0,1,1,0,0,0,.28-.12.86.86,0,0,0,.2-.22,2,2,0,0,0,.18-.36c.06-.14.14-.4.26-.76h.74l-.3,1.33h1.64l-.12.55H9.08L8.6,4.93a8,8,0,0,0-.18.87,2.62,2.62,0,0,0,0,.43c0,.45.19.67.56.67a.93.93,0,0,0,.5-.18,3.25,3.25,0,0,0,.63-.62Z"/></svg>