<svg id="Capa_1" data-name="Capa 1" xmlns="http://www.w3.org/2000/svg" viewBox="0 0 34.95 8.78"><title>vectores</title><path d="M0,8.69l.07-.35L4.33,1.25h.78l.62,7.09-.07.35Zm1.14-.81H4.72L4.49,4.79c-.08-1.13-.12-1.91-.12-2.35H4.3Z"/><path d="M9.15,4.84a4.52,4.52,0,0,1,1-1.06,1.73,1.73,0,0,1,1-.33,3.1,3.1,0,0,1,.66.06l-.26,1.21H11a1.17,1.17,0,0,0-.09-.35.45.45,0,0,0-.14-.18.41.41,0,0,0-.21,0,.74.74,0,0,0-.42.16,2.91,2.91,0,0,0-.51.53,3.71,3.71,0,0,0-.46.68,3.43,3.43,0,0,0-.28.84L8.38,8.69H7.44l.79-3.42a3.6,3.6,0,0,0,.09-.5,1.73,1.73,0,0,0,0-.3.53.53,0,0,0-.07-.31.26.26,0,0,0-.22-.1.6.6,0,0,0-.35.14,4.43,4.43,0,0,0-.51.5l-.31-.3a5.32,5.32,0,0,1,.83-.74,1.39,1.39,0,0,1,.74-.22A.68.68,0,0,1,9,3.67a.85.85,0,0,1,.19.58,1.62,1.62,0,0,1-.1.56Z"/><polygon points="12.14 1.48 10.79 2.65 10.51 2.33 11.37 1.58 8.08 1.58 8.08 1.07 11.37 1.07 10.51 0.32 10.79 0 12.14 1.17 12.14 1.48"/><path d="M21.06,3.81c-.45.6-1,1.35-1.58,2.23a12.54,12.54,0,0,0-.13,1.45,1.07,1.07,0,0,0,.08.51.28.28,0,0,0,.27.16A.69.69,0,0,0,20,8a2.09,2.09,0,0,0,.41-.39l.32.29A3.73,3.73,0,0,1,20,8.6a1.42,1.42,0,0,1-.69.18q-.72,0-.72-1a4.77,4.77,0,0,1,0-.51h-.05A4.76,4.76,0,0,1,17.5,8.41a1.8,1.8,0,0,1-1.06.37,1,1,0,0,1-.67-.23,1.35,1.35,0,0,1-.4-.6,2.66,2.66,0,0,1-.12-.82,4.74,4.74,0,0,1,.36-1.83,3.33,3.33,0,0,1,1-1.36,2.37,2.37,0,0,1,1.47-.49,1.21,1.21,0,0,1,.94.38,1.69,1.69,0,0,1,.38,1.1h0l.71-1.39h.93ZM18.71,6.08a6.48,6.48,0,0,0,.09-1,1.8,1.8,0,0,0-.18-.91.6.6,0,0,0-.56-.29,1.24,1.24,0,0,0-.92.44,3,3,0,0,0-.68,1.19,4.59,4.59,0,0,0-.26,1.55,1.59,1.59,0,0,0,.16.81.53.53,0,0,0,.49.26,1.35,1.35,0,0,0,.95-.54A5.52,5.52,0,0,0,18.71,6.08Z"/><path d="M24.12,8.69l.07-.35,4.26-7.09h.78l.62,7.09-.07.35Zm1.14-.81h3.58l-.23-3.09c-.08-1.13-.12-1.91-.12-2.35h-.07Zm9.25-.21a4,4,0,0,1-.91.84,1.69,1.69,0,0,1-.91.27,1,1,0,0,1-1.12-1.14,3.42,3.42,0,0,1,.09-.76l.64-2.8h-.91l.08-.37a1.9,1.9,0,0,0,.48,0,1,1,0,0,0,.28-.12.81.81,0,0,0,.2-.21A3,3,0,0,0,32.61,3c.06-.15.14-.4.26-.77h.74l-.3,1.34H35l-.12.54H33.2l-.48,2.09a8,8,0,0,0-.18.88,2.62,2.62,0,0,0,0,.43c0,.44.19.67.56.67a.87.87,0,0,0,.5-.19,3.14,3.14,0,0,0,.63-.61Z"/></svg>