<svg id="Capa_1" data-name="Capa 1" xmlns="http://www.w3.org/2000/svg" viewBox="0 0 54.05 10.55"><title>vectores</title><path d="M4.06,3.8l.5-.36.35.09L4.11,7a3.76,3.76,0,0,0-.12.8.62.62,0,0,0,.07.31.28.28,0,0,0,.23.1A.6.6,0,0,0,4.63,8a3.14,3.14,0,0,0,.52-.5l.31.3a4.9,4.9,0,0,1-.83.74,1.42,1.42,0,0,1-.74.22.69.69,0,0,1-.54-.23A.83.83,0,0,1,3.15,8a1.65,1.65,0,0,1,.13-.63l-.07,0a4.8,4.8,0,0,1-1,1.1,1.63,1.63,0,0,1-1,.35,1.06,1.06,0,0,1-.92-.45A2.06,2.06,0,0,1,0,7.07,4.53,4.53,0,0,1,.36,5.29a3.41,3.41,0,0,1,1-1.35,2.28,2.28,0,0,1,1.42-.5,2.78,2.78,0,0,1,.66.08A2.25,2.25,0,0,1,4.06,3.8ZM3.59,5.41A3.77,3.77,0,0,0,3.65,5a1.89,1.89,0,0,0,0-.35.89.89,0,0,0-.18-.61.83.83,0,0,0-.6-.19,1.38,1.38,0,0,0-1,.45,3.16,3.16,0,0,0-.69,1.2A4.91,4.91,0,0,0,1,7a1.84,1.84,0,0,0,.16.84.54.54,0,0,0,.51.27,1.06,1.06,0,0,0,.7-.3A4.65,4.65,0,0,0,3,7a3.9,3.9,0,0,0,.51-1.31Z"/><polygon points="5.3 1.48 3.94 2.65 3.66 2.33 4.52 1.58 1.23 1.58 1.23 1.07 4.52 1.07 3.66 0.32 3.94 0 5.3 1.17 5.3 1.48"/><path d="M9.72,4.78V4.06h6.64v.72ZM9.72,7V6.3h6.64V7Z"/><path d="M23.19,8.78a1.9,1.9,0,0,1-1.73-.92,5.37,5.37,0,0,1-.57-2.78,7.88,7.88,0,0,1,.17-1.72,3.53,3.53,0,0,1,.5-1.19,2.07,2.07,0,0,1,.75-.7,2.13,2.13,0,0,1,1-.22A1.92,1.92,0,0,1,25,2.16a5.14,5.14,0,0,1,.58,2.75A5.4,5.4,0,0,1,25,7.8,2,2,0,0,1,23.19,8.78ZM21.94,4.92a7.44,7.44,0,0,0,.33,2.58,1.08,1.08,0,0,0,1,.82,1,1,0,0,0,1-.78,6.47,6.47,0,0,0,.32-2.39,9.93,9.93,0,0,0-.16-2A2.54,2.54,0,0,0,24,2a.88.88,0,0,0-.7-.34.92.92,0,0,0-.62.22,1.61,1.61,0,0,0-.41.64,4.26,4.26,0,0,0-.21,1A11,11,0,0,0,21.94,4.92Z"/><path d="M31.38,1.26a10.62,10.62,0,0,0-1,4.52,10,10,0,0,0,.26,2.3,11.66,11.66,0,0,0,.74,2.23.26.26,0,0,1,0,.11.09.09,0,0,1,0,.07.33.33,0,0,1-.12,0h-.38l-.12,0-.08,0a.11.11,0,0,1-.05,0,10.26,10.26,0,0,1-.52-1.12,10.84,10.84,0,0,1-.37-1.14A9.43,9.43,0,0,1,29.51,7a9.71,9.71,0,0,1-.08-1.21,9.67,9.67,0,0,1,.08-1.2c.06-.39.14-.79.24-1.18a10.31,10.31,0,0,1,.38-1.15c.14-.37.31-.75.49-1.12l0,0,.07,0,.12,0H31l.2,0,.12,0a.12.12,0,0,1,0,.07A.15.15,0,0,1,31.38,1.26Zm5.68,7.29a.19.19,0,0,1,0,.08s0,0-.07,0l-.13,0H36.4l-.14,0-.07,0a.19.19,0,0,1,0-.08V5.71a2.91,2.91,0,0,0-.06-.66,1.62,1.62,0,0,0-.19-.44.79.79,0,0,0-.32-.28,1,1,0,0,0-.46-.1,1.17,1.17,0,0,0-.67.24,4.08,4.08,0,0,0-.7.69V8.55a.11.11,0,0,1,0,.08s0,0-.07,0l-.13,0h-.44l-.14,0-.07,0a.19.19,0,0,1,0-.08V3.7a.14.14,0,0,1,0-.07.1.1,0,0,1,.06,0l.13,0h.39a.33.33,0,0,1,.13,0,.15.15,0,0,1,.06,0,.14.14,0,0,1,0,.07v.64a3.19,3.19,0,0,1,.81-.67,1.82,1.82,0,0,1,.83-.21,1.8,1.8,0,0,1,.81.17,1.43,1.43,0,0,1,.54.43,1.75,1.75,0,0,1,.29.65,3.75,3.75,0,0,1,.09.89Zm5.78,0a.19.19,0,0,1,0,.08l-.07,0-.13,0h-.39l-.12,0s-.06,0-.07,0a.19.19,0,0,1,0-.08V7.91a3,3,0,0,1-.82.67,1.75,1.75,0,0,1-.82.21,1.85,1.85,0,0,1-.82-.16A1.35,1.35,0,0,1,39,8.19a1.69,1.69,0,0,1-.3-.65,3.75,3.75,0,0,1-.09-.89V3.7a.14.14,0,0,1,0-.07.13.13,0,0,1,.07,0l.14,0h.44a.4.4,0,0,1,.13,0,.16.16,0,0,1,.08,0,.14.14,0,0,1,0,.07V6.53a3.1,3.1,0,0,0,.06.68,1.18,1.18,0,0,0,.19.44.87.87,0,0,0,.32.28,1.06,1.06,0,0,0,.45.1,1.15,1.15,0,0,0,.67-.24,3.83,3.83,0,0,0,.7-.7V3.7a.14.14,0,0,1,0-.07.13.13,0,0,1,.07,0l.14,0h.43a.39.39,0,0,1,.14,0,.13.13,0,0,1,.07,0,.09.09,0,0,1,0,.07Zm2.47,0a.19.19,0,0,1,0,.08l-.07,0-.14,0h-.43l-.14,0s-.06,0-.07,0a.19.19,0,0,1,0-.08V1.35a.14.14,0,0,1,0-.07.22.22,0,0,1,.07-.06l.14,0h.43l.14,0,.07.06a.14.14,0,0,1,0,.07Zm5.3,0a.12.12,0,0,1,0,.1.33.33,0,0,1-.12.05H50a.23.23,0,0,1-.12-.05.12.12,0,0,1,0-.1V8.08a2.36,2.36,0,0,1-.71.52,1.84,1.84,0,0,1-.83.19,2.17,2.17,0,0,1-.69-.1,1.36,1.36,0,0,1-.53-.29,1.32,1.32,0,0,1-.34-.46,1.52,1.52,0,0,1-.12-.62,1.47,1.47,0,0,1,.17-.72,1.43,1.43,0,0,1,.48-.5A2.51,2.51,0,0,1,48,5.8a5.18,5.18,0,0,1,1-.1h.67V5.33a1.85,1.85,0,0,0-.06-.5.89.89,0,0,0-.19-.36.79.79,0,0,0-.34-.21,1.58,1.58,0,0,0-.52-.08,2.1,2.1,0,0,0-.59.08,3.44,3.44,0,0,0-.46.17c-.13.07-.24.12-.33.18a.44.44,0,0,1-.19.07.11.11,0,0,1-.08,0l-.06-.06,0-.11a.76.76,0,0,1,0-.15.62.62,0,0,1,0-.21A.27.27,0,0,1,47,4a1.3,1.3,0,0,1,.25-.17,2.67,2.67,0,0,1,.41-.17,4.71,4.71,0,0,1,.51-.13,3.31,3.31,0,0,1,.55,0,2.86,2.86,0,0,1,.89.12,1.39,1.39,0,0,1,.59.35,1.34,1.34,0,0,1,.33.57,2.66,2.66,0,0,1,.1.79Zm-.88-2.22H49a3,3,0,0,0-.64.07,1.27,1.27,0,0,0-.44.18.71.71,0,0,0-.26.29.8.8,0,0,0-.09.39.78.78,0,0,0,.24.6,1,1,0,0,0,.67.23,1.22,1.22,0,0,0,.65-.18,2.74,2.74,0,0,0,.63-.55Zm4.32-.55A9.71,9.71,0,0,1,54,7a9.43,9.43,0,0,1-.22,1.18,10.84,10.84,0,0,1-.37,1.14c-.15.38-.32.75-.51,1.12l0,0-.08,0-.13,0h-.38a.23.23,0,0,1-.11,0,.08.08,0,0,1,0-.07.61.61,0,0,1,0-.11,11.47,11.47,0,0,0,.75-2.23,10.64,10.64,0,0,0-.76-6.82.14.14,0,0,1,0-.09.1.1,0,0,1,0-.07.34.34,0,0,1,.12,0l.2,0h.19l.12,0s.06,0,.07,0,0,0,0,0a12.33,12.33,0,0,1,.87,2.27A9.16,9.16,0,0,1,54.05,5.79Z"/></svg>