<svg id="Capa_1" data-name="Capa 1" xmlns="http://www.w3.org/2000/svg" viewBox="0 0 5.5 7.79"><title>vectores</title><path d="M1.39,1.55a4.75,4.75,0,0,0,.12-.8A.36.36,0,0,0,1.38.43a1.08,1.08,0,0,0-.5-.1L1,.05,2.31,0h.32L1.7,3.74l.06,0a4.35,4.35,0,0,1,1-1,1.65,1.65,0,0,1,.92-.3,1,1,0,0,1,.77.29,1.12,1.12,0,0,1,.27.8,4,4,0,0,1-.16,1L4.18,5.94A4.35,4.35,0,0,0,4,6.77a.53.53,0,0,0,.07.31.25.25,0,0,0,.22.09A.56.56,0,0,0,4.67,7a3.18,3.18,0,0,0,.52-.5l.31.3a5.3,5.3,0,0,1-.85.75,1.36,1.36,0,0,1-.75.2.71.71,0,0,1-.56-.24,1,1,0,0,1-.2-.64,4.34,4.34,0,0,1,.18-1l.23-.94a7.54,7.54,0,0,0,.16-.75,2.57,2.57,0,0,0,0-.39.84.84,0,0,0-.13-.54.46.46,0,0,0-.4-.16.9.9,0,0,0-.49.18,3,3,0,0,0-.57.56,4.39,4.39,0,0,0-.47.72,3.34,3.34,0,0,0-.28.81L.93,7.71H0Z"/></svg>