<svg id="Capa_1" data-name="Capa 1" xmlns="http://www.w3.org/2000/svg" viewBox="0 0 35.31 7.54"><defs><style>.cls-1{fill:#e52421;}</style></defs><title>vectores</title><path class="cls-1" d="M3.12,6.43a4.2,4.2,0,0,1-.91.83,1.69,1.69,0,0,1-.91.27A1,1,0,0,1,.18,6.39a3.49,3.49,0,0,1,.09-.76L.91,2.84H0l.08-.38a2.68,2.68,0,0,0,.48,0A1,1,0,0,0,.84,2.3.86.86,0,0,0,1,2.08a2,2,0,0,0,.18-.36c.06-.14.14-.4.26-.76h.74l-.3,1.33H3.56l-.12.55H1.81L1.33,4.93a8,8,0,0,0-.18.87,2.62,2.62,0,0,0,0,.43c0,.45.19.67.56.67a.93.93,0,0,0,.5-.18A3.25,3.25,0,0,0,2.8,6.1Z"/><path d="M7.85,3.53V2.81h6.64v.72Zm0,2.24V5.05h6.64v.72Z"/><path d="M22.08,6a2.74,2.74,0,0,0,0,.47.63.63,0,0,0,.12.26.6.6,0,0,0,.26.15,1.9,1.9,0,0,0,.42.09l.67,0v.39h-4V7.05A8.34,8.34,0,0,0,20.45,7a1,1,0,0,0,.39-.14.52.52,0,0,0,.2-.26A1.73,1.73,0,0,0,21.1,6V1.67A.54.54,0,0,0,21,1.35a.25.25,0,0,0-.22-.1,1.18,1.18,0,0,0-.49.18c-.21.12-.47.28-.78.49l-.24-.42L21.81,0h.3c0,.35,0,.82,0,1.43Zm5.37,1.49a1.89,1.89,0,0,1-1.74-.92,5.34,5.34,0,0,1-.57-2.78,7.12,7.12,0,0,1,.18-1.71,3.9,3.9,0,0,1,.49-1.2,2,2,0,0,1,.76-.69,2.06,2.06,0,0,1,1-.23,1.93,1.93,0,0,1,1.76.91,5.3,5.3,0,0,1,.58,2.76,5.45,5.45,0,0,1-.62,2.88A2,2,0,0,1,27.45,7.53ZM26.2,3.67a7.48,7.48,0,0,0,.32,2.58,1.09,1.09,0,0,0,1,.82,1,1,0,0,0,1-.77,6.8,6.8,0,0,0,.32-2.4,10,10,0,0,0-.17-2A2.36,2.36,0,0,0,28.2.79a.88.88,0,0,0-.69-.33.91.91,0,0,0-.63.22,1.6,1.6,0,0,0-.4.64,4.12,4.12,0,0,0-.22,1A13.32,13.32,0,0,0,26.2,3.67Z"/><path d="M34.63,3.6a1.2,1.2,0,0,0-.31-.73,1.15,1.15,0,0,0-.81-.24,1.09,1.09,0,0,0-.69.21.74.74,0,0,0-.26.58.74.74,0,0,0,.07.34.93.93,0,0,0,.27.33,5.41,5.41,0,0,0,.63.43,4.26,4.26,0,0,1,.55.38,1.64,1.64,0,0,1,.32.33,1.08,1.08,0,0,1,.17.36,1.44,1.44,0,0,1,.06.45,1.34,1.34,0,0,1-.26.82,1.49,1.49,0,0,1-.69.51,2.87,2.87,0,0,1-1,.17,6.4,6.4,0,0,1-.88-.07,7.31,7.31,0,0,1-1-.23l.26-1.18h.42a1.11,1.11,0,0,0,.29.79,1.21,1.21,0,0,0,.86.26,1.29,1.29,0,0,0,.8-.23.79.79,0,0,0,.29-.65.93.93,0,0,0-.09-.42,1,1,0,0,0-.26-.33,4.12,4.12,0,0,0-.58-.41,4.85,4.85,0,0,1-.66-.46,1.45,1.45,0,0,1-.35-.44,1.2,1.2,0,0,1-.12-.55,1.26,1.26,0,0,1,.23-.75,1.4,1.4,0,0,1,.66-.49,2.5,2.5,0,0,1,1-.18,6.32,6.32,0,0,1,.91.06,4,4,0,0,1,.82.21L35.07,3.6Z"/></svg>