<svg id="Capa_1" data-name="Capa 1" xmlns="http://www.w3.org/2000/svg" viewBox="0 0 12.14 8.69"><title>vectores</title><path d="M0,8.69l.07-.35L4.33,1.25h.78l.62,7.09-.07.35Zm1.14-.81H4.72L4.49,4.79c-.08-1.13-.12-1.91-.12-2.35H4.3Z"/><path d="M9.15,4.84a4.52,4.52,0,0,1,1-1.06,1.73,1.73,0,0,1,1-.33,3.1,3.1,0,0,1,.66.06l-.26,1.21H11a1.17,1.17,0,0,0-.09-.35.45.45,0,0,0-.14-.18.41.41,0,0,0-.21,0,.74.74,0,0,0-.42.16,2.91,2.91,0,0,0-.51.53,3.71,3.71,0,0,0-.46.68,3.43,3.43,0,0,0-.28.84L8.38,8.69H7.44l.79-3.42a3.6,3.6,0,0,0,.09-.5,1.73,1.73,0,0,0,0-.3.53.53,0,0,0-.07-.31.26.26,0,0,0-.22-.1.6.6,0,0,0-.35.14,4.43,4.43,0,0,0-.51.5l-.31-.3a5.32,5.32,0,0,1,.83-.74,1.39,1.39,0,0,1,.74-.22A.68.68,0,0,1,9,3.67a.85.85,0,0,1,.19.58,1.62,1.62,0,0,1-.1.56Z"/><polygon points="12.14 1.48 10.79 2.65 10.51 2.33 11.37 1.58 8.08 1.58 8.08 1.07 11.37 1.07 10.51 0.32 10.79 0 12.14 1.17 12.14 1.48"/></svg>