<svg id="Capa_1" data-name="Capa 1" xmlns="http://www.w3.org/2000/svg" viewBox="0 0 5.46 7.79"><defs><style>.cls-1{fill:#1d1d1b;}</style></defs><title>vectores</title><path class="cls-1" d="M3.21,6.33a4.67,4.67,0,0,1-1,1.11,1.63,1.63,0,0,1-1,.35,1.06,1.06,0,0,1-.92-.45A2.06,2.06,0,0,1,0,6.09,4.58,4.58,0,0,1,.36,4.3,3.38,3.38,0,0,1,1.36,3a2.28,2.28,0,0,1,1.42-.5,2.92,2.92,0,0,1,.61.07A2.25,2.25,0,0,1,4,2.77l.28-1.25a3.91,3.91,0,0,0,.07-.39,2.87,2.87,0,0,0,0-.38.44.44,0,0,0,0-.25A.43.43,0,0,0,4.12.38a2.21,2.21,0,0,0-.4,0L3.78.05,5.14,0h.32L4.11,6a4,4,0,0,0-.12.8.62.62,0,0,0,.07.31.27.27,0,0,0,.23.09A.58.58,0,0,0,4.63,7a3.64,3.64,0,0,0,.52-.5l.31.3a4.83,4.83,0,0,1-.84.74,1.37,1.37,0,0,1-.73.21.69.69,0,0,1-.54-.22A.83.83,0,0,1,3.15,7a1.65,1.65,0,0,1,.13-.63Zm.36-1.9a4,4,0,0,0,.08-.74.87.87,0,0,0-.18-.61.76.76,0,0,0-.59-.19,1.37,1.37,0,0,0-1,.44,3.16,3.16,0,0,0-.69,1.2A5,5,0,0,0,1,6a1.84,1.84,0,0,0,.16.84.54.54,0,0,0,.51.27A.83.83,0,0,0,2,7.08a1.45,1.45,0,0,0,.36-.23,2.91,2.91,0,0,0,.37-.4c.12-.15.23-.31.33-.46a4.17,4.17,0,0,0,.28-.56,4,4,0,0,0,.22-.77Z"/></svg>