<svg id="Capa_1" data-name="Capa 1" xmlns="http://www.w3.org/2000/svg" viewBox="0 0 29.86 18.52"><title>vectores</title><path d="M1.54,13a.45.45,0,0,1-.26-.08.48.48,0,0,1-.17-.22A1.39,1.39,0,0,1,1,12.38,2.77,2.77,0,0,1,1,12a5.07,5.07,0,0,1,0-.66c0-.23.06-.47.1-.71L1.35,9.1c0-.09,0-.17,0-.24a1.31,1.31,0,0,0,0-.17.7.7,0,0,0,0-.28.2.2,0,0,0-.19-.11.43.43,0,0,0-.22.07L.7,8.52l-.23.21-.21.21L0,8.64A3.89,3.89,0,0,1,.36,8.3,2.31,2.31,0,0,1,.75,8a1.88,1.88,0,0,1,.45-.22,1.27,1.27,0,0,1,.47-.09A.82.82,0,0,1,2,7.75a.58.58,0,0,1,.2.18.64.64,0,0,1,.1.24,1.18,1.18,0,0,1,0,.26v.15a.59.59,0,0,1,0,.13L2,10.66c0,.2-.06.4-.08.6s0,.37,0,.52a3.57,3.57,0,0,0,0,.37c0,.09.06.14.11.14a1,1,0,0,0,.44-.15A2.9,2.9,0,0,0,3,11.75a4.69,4.69,0,0,0,.59-.59,5.6,5.6,0,0,0,.54-.74,4.52,4.52,0,0,0,.38-.84,2.82,2.82,0,0,0,.15-.89.51.51,0,0,0-.08-.3.33.33,0,0,0-.26-.11.59.59,0,0,0-.42.18,2.75,2.75,0,0,0-.4.46l-.31-.28A2.75,2.75,0,0,1,3.91,8a2.32,2.32,0,0,1,.41-.22,1.19,1.19,0,0,1,.41-.08.72.72,0,0,1,.56.2.86.86,0,0,1,.17.55A2.29,2.29,0,0,1,5.37,9a4.66,4.66,0,0,1-.26.7,6.31,6.31,0,0,1-.4.77,7.21,7.21,0,0,1-.51.76,8,8,0,0,1-.6.69,4.34,4.34,0,0,1-.66.57,4,4,0,0,1-.69.39A2,2,0,0,1,1.54,13Z"/><polygon points="5.61 5.72 4.25 6.89 3.97 6.57 4.83 5.82 1.54 5.82 1.54 5.31 4.83 5.31 3.97 4.56 4.25 4.24 5.61 5.41 5.61 5.72"/><path d="M9.79,9V8.3h6.64V9Zm0,2.24v-.72h6.64v.72Z"/><path d="M20.34,6.45l.05-.26,3.13-4.91h.64l.55,4.91-.05.26Zm.93-.63H23.9l-.2-2.07c0-.32-.05-.62-.07-.88s0-.5,0-.71h-.06Z"/><path d="M26.67,3.89c0-.15.06-.28.08-.38s0-.18,0-.25S26.69,3,26.54,3a.4.4,0,0,0-.15,0,.6.6,0,0,0-.15.09l-.17.15-.22.21-.27-.25c.13-.14.25-.25.36-.35l.31-.23a1.35,1.35,0,0,1,.3-.14,1,1,0,0,1,.3,0,.53.53,0,0,1,.45.19.73.73,0,0,1,.16.5,1.07,1.07,0,0,1-.05.32l.05,0a3.35,3.35,0,0,1,.77-.78A1.35,1.35,0,0,1,29,2.44l.28,0,.26,0-.2,1h-.46a.65.65,0,0,0-.1-.34.26.26,0,0,0-.23-.1.36.36,0,0,0-.21.05,1.59,1.59,0,0,0-.25.17,2.12,2.12,0,0,0-.26.26,3.92,3.92,0,0,0-.25.32c-.07.12-.14.25-.2.38a1.87,1.87,0,0,0-.13.4l-.4,1.86h-.77Z"/><polygon points="29.82 1.08 28.84 1.93 28.63 1.7 29.26 1.15 26.86 1.15 26.86 0.78 29.26 0.78 28.63 0.24 28.84 0 29.82 0.85 29.82 1.08"/><path d="M20.7,18.45l.05-.26,3.13-4.91h.64l.55,4.91-.05.26Zm.93-.63h2.63l-.2-2.07c0-.32,0-.62-.07-.88s0-.5,0-.71H23.9Zm7.06-.13a3.4,3.4,0,0,1-.38.38,2.42,2.42,0,0,1-.35.26,1.36,1.36,0,0,1-.34.14,1.34,1.34,0,0,1-.35.05.94.94,0,0,1-.69-.22.83.83,0,0,1-.23-.65,1.83,1.83,0,0,1,0-.32,2,2,0,0,1,.06-.34l.47-2h-.68l.08-.3a1.18,1.18,0,0,0,.37-.05.78.78,0,0,0,.22-.12.85.85,0,0,0,.11-.14,1.6,1.6,0,0,0,.11-.19,1.69,1.69,0,0,0,.11-.27c0-.1.08-.23.13-.36H28l-.22,1h1.33L29,15H27.65l-.4,1.64c0,.11-.05.21-.06.3s0,.17,0,.24l0,.19v.16a.58.58,0,0,0,.1.37.36.36,0,0,0,.32.13.69.69,0,0,0,.4-.14,2.87,2.87,0,0,0,.48-.43Z"/><rect x="20.26" y="9.45" width="9.6" height="0.72"/></svg>