<svg id="Capa_1" data-name="Capa 1" xmlns="http://www.w3.org/2000/svg" viewBox="0 0 55.32 8.91"><title>vectores</title><path d="M1.54,8.78a.38.38,0,0,1-.26-.08.48.48,0,0,1-.17-.22A1.44,1.44,0,0,1,1,8.15a2.9,2.9,0,0,1,0-.43,5.18,5.18,0,0,1,0-.66c0-.23.06-.47.1-.7l.22-1.5a2.4,2.4,0,0,0,0-.24,1.31,1.31,0,0,0,0-.17.74.74,0,0,0,0-.28.2.2,0,0,0-.19-.11.55.55,0,0,0-.22.07,1.11,1.11,0,0,0-.24.16l-.23.2L.26,4.7,0,4.4a3.89,3.89,0,0,1,.36-.34,2.31,2.31,0,0,1,.39-.31,1.88,1.88,0,0,1,.45-.22,1.27,1.27,0,0,1,.47-.09A.82.82,0,0,1,2,3.51a.7.7,0,0,1,.2.18.64.64,0,0,1,.1.24,1.18,1.18,0,0,1,0,.26v.15a.51.51,0,0,1,0,.13l-.3,2c0,.21-.06.41-.08.6s0,.37,0,.52a3.57,3.57,0,0,0,0,.37c0,.09.06.14.11.14a1,1,0,0,0,.44-.14A3.52,3.52,0,0,0,3,7.51a4.69,4.69,0,0,0,.59-.59,5.6,5.6,0,0,0,.54-.74,4.52,4.52,0,0,0,.38-.84,2.77,2.77,0,0,0,.15-.89.51.51,0,0,0-.08-.3A.33.33,0,0,0,4.36,4a.59.59,0,0,0-.42.18,2.75,2.75,0,0,0-.4.46L3.23,4.4a2.75,2.75,0,0,1,.68-.68,2.32,2.32,0,0,1,.41-.22,1.19,1.19,0,0,1,.41-.08.69.69,0,0,1,.56.21.81.81,0,0,1,.17.54,2.29,2.29,0,0,1-.09.59,5.2,5.2,0,0,1-.26.71,7,7,0,0,1-.4.76A7.21,7.21,0,0,1,4.2,7a6.75,6.75,0,0,1-.6.69,4.34,4.34,0,0,1-.66.57,4,4,0,0,1-.69.39A2,2,0,0,1,1.54,8.78Z"/><polygon points="5.61 1.48 4.25 2.65 3.97 2.33 4.83 1.58 1.54 1.58 1.54 1.07 4.83 1.07 3.97 0.32 4.25 0 5.61 1.17 5.61 1.48"/><path d="M9.79,4.78V4.06h6.64v.72ZM9.79,7V6.3h6.64V7Z"/><path d="M24.2,4.83a2.41,2.41,0,0,0-.07-.59A.43.43,0,0,0,24,4a.6.6,0,0,0-.36-.09,1.39,1.39,0,0,0-1,.43,3.14,3.14,0,0,0-.7,1.23,4.52,4.52,0,0,0-.28,1.53,1.26,1.26,0,0,0,.22.82.77.77,0,0,0,.64.27A1.87,1.87,0,0,0,23.34,8a3.08,3.08,0,0,0,.76-.59l.33.33a3.5,3.5,0,0,1-1,.82,2.38,2.38,0,0,1-1.11.26,1.5,1.5,0,0,1-1.19-.46A2,2,0,0,1,20.71,7a4.42,4.42,0,0,1,.21-1.27,3.78,3.78,0,0,1,.64-1.21,2.58,2.58,0,0,1,1-.78,2.79,2.79,0,0,1,1.18-.26A5,5,0,0,1,25,3.61l-.26,1.22Zm4.73,2.84a3.8,3.8,0,0,1-.9.84,1.72,1.72,0,0,1-.91.27A1,1,0,0,1,26,7.64a3.42,3.42,0,0,1,.09-.76l.64-2.8h-.91l.08-.37a1.93,1.93,0,0,0,.49,0,.85.85,0,0,0,.27-.12.67.67,0,0,0,.2-.21A3,3,0,0,0,27,3c.06-.15.15-.4.26-.77H28l-.29,1.34h1.64l-.12.54H27.62l-.48,2.09c-.09.41-.15.7-.18.88s0,.32,0,.43c0,.44.19.67.56.67A.83.83,0,0,0,28,8a3.43,3.43,0,0,0,.64-.61Z"/><path d="M34.37,7.62a4,4,0,0,1-1,.86,2.54,2.54,0,0,1-1.25.3,1.53,1.53,0,0,1-1.21-.48A1.9,1.9,0,0,1,30.43,7a4.13,4.13,0,0,1,.21-1.24,3.42,3.42,0,0,1,.62-1.18,3.07,3.07,0,0,1,1-.82,2.83,2.83,0,0,1,1.25-.29,1.51,1.51,0,0,1,1,.27,1,1,0,0,1,.33.82A1.49,1.49,0,0,1,34,5.91a5.69,5.69,0,0,1-2.55.46,3.08,3.08,0,0,0-.07.7,1.24,1.24,0,0,0,.22.82.92.92,0,0,0,.72.26,1.93,1.93,0,0,0,.9-.22A3.85,3.85,0,0,0,34,7.27ZM31.51,5.91a6,6,0,0,0,1.3-.14,1.85,1.85,0,0,0,.84-.42,1.06,1.06,0,0,0,.29-.78.73.73,0,0,0-.16-.51.53.53,0,0,0-.45-.19,1.44,1.44,0,0,0-1,.55A3.62,3.62,0,0,0,31.51,5.91Z"/><polygon points="39.43 7.01 39.43 6.3 42.15 6.3 42.8 4.78 39.43 4.78 39.43 4.06 43.11 4.06 43.85 2.33 44.5 2.33 43.76 4.06 46.07 4.06 46.07 4.78 43.45 4.78 42.81 6.3 46.07 6.3 46.07 7.01 42.5 7.01 41.69 8.91 41.04 8.91 41.85 7.01 39.43 7.01"/><path d="M52.9,8.78a1.9,1.9,0,0,1-1.73-.92,5.37,5.37,0,0,1-.57-2.78,7.88,7.88,0,0,1,.17-1.72,3.74,3.74,0,0,1,.49-1.19,2.1,2.1,0,0,1,.76-.7,2.13,2.13,0,0,1,1-.22,1.92,1.92,0,0,1,1.75.91,5.14,5.14,0,0,1,.58,2.75A5.49,5.49,0,0,1,54.7,7.8,2,2,0,0,1,52.9,8.78ZM51.65,4.92A7.44,7.44,0,0,0,52,7.5a1.08,1.08,0,0,0,1,.82,1,1,0,0,0,1-.78,6.7,6.7,0,0,0,.32-2.39,9.93,9.93,0,0,0-.16-2A2.54,2.54,0,0,0,53.66,2,.89.89,0,0,0,53,1.7a.92.92,0,0,0-.62.22,1.51,1.51,0,0,0-.41.64,4.77,4.77,0,0,0-.22,1Q51.65,4.17,51.65,4.92Z"/></svg>