<svg id="Capa_1" data-name="Capa 1" xmlns="http://www.w3.org/2000/svg" viewBox="0 0 55.25 8.78"><title>vectores</title><path d="M4.06,3.8l.5-.36.35.09L4.11,7a3.76,3.76,0,0,0-.12.8.62.62,0,0,0,.07.31.28.28,0,0,0,.23.1A.6.6,0,0,0,4.63,8a3.14,3.14,0,0,0,.52-.5l.31.3a4.9,4.9,0,0,1-.83.74,1.42,1.42,0,0,1-.74.22.69.69,0,0,1-.54-.23A.83.83,0,0,1,3.15,8a1.65,1.65,0,0,1,.13-.63l-.07,0a4.8,4.8,0,0,1-1,1.1,1.63,1.63,0,0,1-1,.35,1.06,1.06,0,0,1-.92-.45A2.06,2.06,0,0,1,0,7.07,4.53,4.53,0,0,1,.36,5.29a3.41,3.41,0,0,1,1-1.35,2.28,2.28,0,0,1,1.42-.5,2.78,2.78,0,0,1,.66.08A2.25,2.25,0,0,1,4.06,3.8ZM3.59,5.41A3.77,3.77,0,0,0,3.65,5a1.89,1.89,0,0,0,0-.35.89.89,0,0,0-.18-.61.83.83,0,0,0-.6-.19,1.38,1.38,0,0,0-1,.45,3.16,3.16,0,0,0-.69,1.2A4.91,4.91,0,0,0,1,7a1.84,1.84,0,0,0,.16.84.54.54,0,0,0,.51.27,1.06,1.06,0,0,0,.7-.3A4.65,4.65,0,0,0,3,7a3.9,3.9,0,0,0,.51-1.31Z"/><polygon points="5.3 1.48 3.94 2.65 3.66 2.33 4.52 1.58 1.23 1.58 1.23 1.07 4.52 1.07 3.66 0.32 3.94 0 5.3 1.17 5.3 1.48"/><path d="M9.72,4.78V4.06h6.64v.72ZM9.72,7V6.3h6.64V7Z"/><path d="M24.25,4.83a2.52,2.52,0,0,0-.06-.59A.49.49,0,0,0,24,4a.6.6,0,0,0-.36-.09,1.35,1.35,0,0,0-1,.43A3.14,3.14,0,0,0,22,5.53a4.52,4.52,0,0,0-.28,1.53,1.26,1.26,0,0,0,.22.82.77.77,0,0,0,.64.27A1.87,1.87,0,0,0,23.39,8a3.08,3.08,0,0,0,.76-.59l.33.33a3.5,3.5,0,0,1-1,.82,2.36,2.36,0,0,1-1.11.26,1.5,1.5,0,0,1-1.19-.46A2,2,0,0,1,20.76,7,4.14,4.14,0,0,1,21,5.7a3.58,3.58,0,0,1,.63-1.21,2.58,2.58,0,0,1,1-.78,2.79,2.79,0,0,1,1.18-.26,5,5,0,0,1,1.32.16l-.26,1.22ZM29,7.67a3.8,3.8,0,0,1-.9.84,1.69,1.69,0,0,1-.91.27A1,1,0,0,1,26,7.64a3.42,3.42,0,0,1,.09-.76l.64-2.8h-.91L26,3.71a1.9,1.9,0,0,0,.48,0,.85.85,0,0,0,.27-.12.84.84,0,0,0,.21-.21A2,2,0,0,0,27.08,3c.06-.15.15-.4.26-.77h.75l-.3,1.34h1.64l-.12.54H27.67l-.48,2.09c-.09.41-.15.7-.18.88a4,4,0,0,0,0,.43c0,.44.18.67.55.67A.83.83,0,0,0,28,8a3.43,3.43,0,0,0,.64-.61Z"/><path d="M34.31,7.62a4.22,4.22,0,0,1-1.06.86,2.54,2.54,0,0,1-1.25.3,1.53,1.53,0,0,1-1.21-.48A1.9,1.9,0,0,1,30.36,7a4.13,4.13,0,0,1,.21-1.24,3.63,3.63,0,0,1,.63-1.18,3,3,0,0,1,1-.82,2.86,2.86,0,0,1,1.25-.29,1.49,1.49,0,0,1,1,.27,1,1,0,0,1,.33.82,1.49,1.49,0,0,1-.86,1.38,5.66,5.66,0,0,1-2.55.46,3.08,3.08,0,0,0-.07.7,1.3,1.3,0,0,0,.22.82.92.92,0,0,0,.73.26,1.89,1.89,0,0,0,.89-.22A3.85,3.85,0,0,0,34,7.27ZM31.44,5.91a6,6,0,0,0,1.3-.14,1.8,1.8,0,0,0,.84-.42,1.06,1.06,0,0,0,.29-.78.78.78,0,0,0-.15-.51.56.56,0,0,0-.46-.19,1.44,1.44,0,0,0-1,.55A3.74,3.74,0,0,0,31.44,5.91Z"/><path d="M39.36,4.78V4.06H46v.72Zm0,2.23V6.3H46V7Z"/><path d="M52.83,8.78a1.9,1.9,0,0,1-1.73-.92,5.37,5.37,0,0,1-.57-2.78,7.88,7.88,0,0,1,.17-1.72,3.53,3.53,0,0,1,.5-1.19,2.07,2.07,0,0,1,.75-.7,2.13,2.13,0,0,1,1-.22,1.92,1.92,0,0,1,1.75.91,5.14,5.14,0,0,1,.58,2.75,5.4,5.4,0,0,1-.62,2.89A2,2,0,0,1,52.83,8.78ZM51.58,4.92a7.44,7.44,0,0,0,.33,2.58,1.08,1.08,0,0,0,1,.82,1.06,1.06,0,0,0,1-.78,6.74,6.74,0,0,0,.31-2.39,9.93,9.93,0,0,0-.16-2A2.54,2.54,0,0,0,53.59,2a.88.88,0,0,0-.7-.34.92.92,0,0,0-.62.22,1.61,1.61,0,0,0-.41.64,4.26,4.26,0,0,0-.21,1A11,11,0,0,0,51.58,4.92Z"/></svg>