<svg id="Capa_1" data-name="Capa 1" xmlns="http://www.w3.org/2000/svg" viewBox="0 0 48.25 9.72"><title>vectores</title><path d="M0,7.44.07,7.1,4.33,0h.78l.62,7.1-.07.34Zm1.14-.8H4.72L4.49,3.55c-.08-1.13-.12-1.92-.12-2.36H4.3Z"/><path d="M9.33,5c-.05-.29-.11-.56-.17-.82S9.05,3.68,9,3.46A2.82,2.82,0,0,0,8.83,3a.35.35,0,0,0-.12-.14.31.31,0,0,0-.17-.05.37.37,0,0,0-.21.06.9.9,0,0,0-.2.17l-.28.4L7.5,3.22a3.3,3.3,0,0,1,.65-.77,1.12,1.12,0,0,1,.74-.25.85.85,0,0,1,.29,0,.61.61,0,0,1,.23.11.92.92,0,0,1,.17.21,1.3,1.3,0,0,1,.14.33c0,.14.09.32.14.53s.07.43.11.66h0L10.8,3a5.11,5.11,0,0,1,.45-.5,1.14,1.14,0,0,1,.36-.23,1.12,1.12,0,0,1,.45-.07,1.15,1.15,0,0,1,.41.06l-.21,1h-.38c0-.15-.08-.23-.19-.23l-.1,0a.33.33,0,0,0-.13.07,1.82,1.82,0,0,0-.23.21,4.68,4.68,0,0,0-.34.38q-.2.22-.39.48l-.37.46c.07.34.13.64.19.89s.11.46.15.63.08.3.12.4a.68.68,0,0,0,.11.21.4.4,0,0,0,.12.11.32.32,0,0,0,.14,0,.44.44,0,0,0,.29-.12,2.24,2.24,0,0,0,.39-.51l.35.23a3.18,3.18,0,0,1-.68.79,1.17,1.17,0,0,1-.72.23,1,1,0,0,1-.4-.08.89.89,0,0,1-.28-.27,1.8,1.8,0,0,1-.21-.57,7.66,7.66,0,0,1-.2-1.06H9.44c-.38.54-.66.92-.85,1.16a4.4,4.4,0,0,1-.45.51,1.37,1.37,0,0,1-.35.24,1.42,1.42,0,0,1-.45.07,1.22,1.22,0,0,1-.42-.07l.22-1h.37c0,.16.09.23.19.23a.32.32,0,0,0,.16,0,1,1,0,0,0,.24-.19c.11-.11.25-.27.43-.49S9,5.45,9.33,5Z"/><path d="M15.15,8.69a1.34,1.34,0,0,0,0,.21.61.61,0,0,0,0,.15.31.31,0,0,0,.05.1l.07.08a.35.35,0,0,0,.12.07l.2,0,.3,0h.41v.34H13.21V9.38h.4l.27,0,.18,0,.12-.05.1-.08a.59.59,0,0,0,.1-.26,1.41,1.41,0,0,0,0-.22V5.87a.29.29,0,0,0-.06-.21.22.22,0,0,0-.17-.07,1,1,0,0,0-.36.13c-.16.08-.36.21-.62.37l-.09-.18L13,5.73l1-.53c.32-.18.64-.36,1-.53h.24c0,.14,0,.27,0,.38s0,.23,0,.34v3.3Z"/><path d="M21.24,3.53V2.81h6.64v.72Zm0,2.24V5.05h6.64v.72Z"/><path d="M31.8,7.44l.07-.34L36.13,0h.78l.62,7.1-.07.34Zm1.14-.8h3.58l-.23-3.09c-.08-1.13-.12-1.92-.12-2.36H36.1Z"/><path d="M41.13,5c-.05-.29-.11-.56-.17-.82s-.11-.51-.17-.73A2.82,2.82,0,0,0,40.63,3a.35.35,0,0,0-.12-.14.31.31,0,0,0-.17-.05.37.37,0,0,0-.21.06.9.9,0,0,0-.2.17l-.28.4-.35-.23A3.3,3.3,0,0,1,40,2.45a1.12,1.12,0,0,1,.74-.25.85.85,0,0,1,.29,0,.61.61,0,0,1,.23.11.92.92,0,0,1,.17.21,1.3,1.3,0,0,1,.14.33c0,.14.09.32.14.53s.07.43.11.66h0L42.6,3a5.11,5.11,0,0,1,.45-.5,1.14,1.14,0,0,1,.36-.23,1.12,1.12,0,0,1,.45-.07,1.15,1.15,0,0,1,.41.06l-.21,1h-.38c0-.15-.08-.23-.19-.23l-.1,0a.33.33,0,0,0-.13.07,1.82,1.82,0,0,0-.23.21,4.68,4.68,0,0,0-.34.38l-.39.48-.37.46c.07.34.13.64.19.89s.11.46.15.63.08.3.12.4a.68.68,0,0,0,.11.21.4.4,0,0,0,.12.11.32.32,0,0,0,.14,0,.44.44,0,0,0,.29-.12,2.24,2.24,0,0,0,.39-.51l.35.23a3.18,3.18,0,0,1-.68.79,1.17,1.17,0,0,1-.72.23,1,1,0,0,1-.4-.08.89.89,0,0,1-.28-.27,1.8,1.8,0,0,1-.21-.57,7.66,7.66,0,0,1-.2-1.06h-.06c-.38.54-.66.92-.85,1.16a4.4,4.4,0,0,1-.45.51,1.37,1.37,0,0,1-.35.24,1.42,1.42,0,0,1-.45.07,1.22,1.22,0,0,1-.42-.07l.22-1h.37c0,.16.09.23.19.23a.32.32,0,0,0,.16,0,1,1,0,0,0,.24-.19c.11-.11.25-.27.43-.49S40.78,5.45,41.13,5Z"/><path d="M47.17,9.08h.29A.47.47,0,0,0,47.65,9a.42.42,0,0,0,.12-.14l.12-.27h.36l0,.56c0,.19,0,.38,0,.56H44.85v-.2c.07-.14.14-.28.22-.42l.29-.42c.1-.14.22-.28.35-.43s.28-.31.45-.47l.6-.63a5,5,0,0,0,.36-.47,1.25,1.25,0,0,0,.18-.37,1.14,1.14,0,0,0,.05-.37,1.38,1.38,0,0,0-.05-.37.82.82,0,0,0-.17-.29.64.64,0,0,0-.27-.18A.84.84,0,0,0,46.49,5a1,1,0,0,0-.61.2,1.21,1.21,0,0,0-.39.57H45V5a6.23,6.23,0,0,1,.92-.31,3.71,3.71,0,0,1,.76-.09,2.38,2.38,0,0,1,.7.09,1.39,1.39,0,0,1,.47.25.89.89,0,0,1,.26.38,1.45,1.45,0,0,1,.08.47,2.48,2.48,0,0,1,0,.29,1.29,1.29,0,0,1-.08.26,1,1,0,0,1-.14.25,1.57,1.57,0,0,1-.21.28c-.07.08-.15.18-.26.29l-.34.35-.39.4-.4.4c-.13.13-.24.26-.35.39a2.21,2.21,0,0,0-.26.34Z"/></svg>