<svg id="Capa_1" data-name="Capa 1" xmlns="http://www.w3.org/2000/svg" viewBox="0 0 19.37 10.03"><title>vectores</title><path d="M2.24,3.93a4.36,4.36,0,0,1,1-1.1,1.68,1.68,0,0,1,1-.36,1,1,0,0,1,.79.3,1.2,1.2,0,0,1,.27.85v.07a.22.22,0,0,1,0,.08,4,4,0,0,1,.93-1,1.59,1.59,0,0,1,1-.33,1,1,0,0,1,.77.29,1.12,1.12,0,0,1,.27.8,4.06,4.06,0,0,1-.16,1L7.68,5.94a3.74,3.74,0,0,0-.14.83.51.51,0,0,0,.07.31.24.24,0,0,0,.22.1.58.58,0,0,0,.34-.13,3.87,3.87,0,0,0,.52-.51L9,6.85a5.83,5.83,0,0,1-.81.72,1.41,1.41,0,0,1-.79.23.69.69,0,0,1-.56-.25,1,1,0,0,1-.21-.64,4.42,4.42,0,0,1,.18-1L7.05,5c.08-.34.14-.59.17-.75a3.67,3.67,0,0,0,0-.39.93.93,0,0,0-.13-.54.47.47,0,0,0-.4-.16.91.91,0,0,0-.49.16,2.65,2.65,0,0,0-.54.53,4.57,4.57,0,0,0-.47.71,3.66,3.66,0,0,0-.29.85L4.45,7.71H3.52L4.14,5q.12-.51.15-.75a2.17,2.17,0,0,0,0-.41.87.87,0,0,0-.13-.55.54.54,0,0,0-.43-.16.91.91,0,0,0-.47.16,2.84,2.84,0,0,0-.56.55,4.29,4.29,0,0,0-.46.72A4.34,4.34,0,0,0,2,5.38L1.49,7.71H.56L1.34,4.3a3.85,3.85,0,0,0,.12-.8.49.49,0,0,0-.07-.31.25.25,0,0,0-.22-.1.54.54,0,0,0-.35.14,3.08,3.08,0,0,0-.51.49L0,3.42A5.16,5.16,0,0,1,.82,2.7a1.33,1.33,0,0,1,.75-.23.69.69,0,0,1,.54.22.87.87,0,0,1,.19.59,1.84,1.84,0,0,1-.12.63Z"/><polygon points="14.3 0 10.41 10.03 9.56 10.03 13.47 0 14.3 0"/><path d="M18.7,3.87a1.21,1.21,0,0,0-.32-.73,1.15,1.15,0,0,0-.81-.25,1.1,1.1,0,0,0-.69.22.74.74,0,0,0-.26.58.74.74,0,0,0,.07.34.93.93,0,0,0,.27.33,5.72,5.72,0,0,0,.64.43,4.86,4.86,0,0,1,.54.38,1.64,1.64,0,0,1,.32.33,1.35,1.35,0,0,1,.18.36,1.87,1.87,0,0,1,.05.45,1.34,1.34,0,0,1-.26.82,1.49,1.49,0,0,1-.69.51,2.83,2.83,0,0,1-1,.17,6.4,6.4,0,0,1-.88-.07,7.31,7.31,0,0,1-1-.23l.26-1.18h.42a1.11,1.11,0,0,0,.29.79,1.23,1.23,0,0,0,.86.26,1.27,1.27,0,0,0,.8-.23.79.79,0,0,0,.29-.65,1.08,1.08,0,0,0-.08-.42,1.16,1.16,0,0,0-.27-.33,3.59,3.59,0,0,0-.58-.41,4.85,4.85,0,0,1-.66-.46,1.45,1.45,0,0,1-.35-.44,1.2,1.2,0,0,1-.12-.55A1.26,1.26,0,0,1,16,3.14a1.4,1.4,0,0,1,.66-.49,2.5,2.5,0,0,1,1-.18,6.32,6.32,0,0,1,.91.06,4,4,0,0,1,.82.21l-.24,1.13Z"/></svg>