<svg id="Capa_1" data-name="Capa 1" xmlns="http://www.w3.org/2000/svg" viewBox="0 0 5.46 8.78"><title>vectores</title><path d="M4.06,3.8l.5-.36.35.09L4.11,7a3.76,3.76,0,0,0-.12.8.62.62,0,0,0,.07.31.28.28,0,0,0,.23.1A.6.6,0,0,0,4.63,8a3.14,3.14,0,0,0,.52-.5l.31.3a4.9,4.9,0,0,1-.83.74,1.42,1.42,0,0,1-.74.22.69.69,0,0,1-.54-.23A.83.83,0,0,1,3.15,8a1.65,1.65,0,0,1,.13-.63l-.07,0a4.8,4.8,0,0,1-1,1.1,1.63,1.63,0,0,1-1,.35,1.06,1.06,0,0,1-.92-.45A2.06,2.06,0,0,1,0,7.07,4.53,4.53,0,0,1,.36,5.29a3.41,3.41,0,0,1,1-1.35,2.28,2.28,0,0,1,1.42-.5,2.78,2.78,0,0,1,.66.08A2.25,2.25,0,0,1,4.06,3.8ZM3.59,5.41A3.77,3.77,0,0,0,3.65,5a1.89,1.89,0,0,0,0-.35.89.89,0,0,0-.18-.61.83.83,0,0,0-.6-.19,1.38,1.38,0,0,0-1,.45,3.16,3.16,0,0,0-.69,1.2A4.91,4.91,0,0,0,1,7a1.84,1.84,0,0,0,.16.84.54.54,0,0,0,.51.27,1.06,1.06,0,0,0,.7-.3A4.65,4.65,0,0,0,3,7a3.9,3.9,0,0,0,.51-1.31Z"/><polygon points="5.3 1.48 3.94 2.65 3.66 2.33 4.52 1.58 1.23 1.58 1.23 1.07 4.52 1.07 3.66 0.32 3.94 0 5.3 1.17 5.3 1.48"/></svg>