<svg id="Capa_1" data-name="Capa 1" xmlns="http://www.w3.org/2000/svg" viewBox="0 0 14.75 7.79"><title>vectores</title><path d="M2.34,5.49a1.17,1.17,0,0,0-.1-.29.33.33,0,0,0-.13-.11l-.24,0H1.49L.93,7.71H0L1.39,1.55c0-.21.08-.37.1-.49s0-.22,0-.31A.36.36,0,0,0,1.38.43a1.08,1.08,0,0,0-.5-.1L1,.05,2.31,0h.32L1.57,4.71h.17a1.63,1.63,0,0,0,.91-.36,6.17,6.17,0,0,0,.81-.65.86.86,0,0,0,.3-.58c0-.18-.12-.28-.37-.3l.06-.26H5.2l.1.26c-.3.27-.62.53-1,.79L3,4.65l.53,1.94A1.47,1.47,0,0,0,3.66,7a.43.43,0,0,0,.12.17.3.3,0,0,0,.18,0A.59.59,0,0,0,4.29,7a3,3,0,0,0,.44-.44l.31.3a4.58,4.58,0,0,1-.8.72,1.2,1.2,0,0,1-.62.19A.79.79,0,0,1,3,7.59a1.47,1.47,0,0,1-.34-.7ZM8,3.92A4.47,4.47,0,0,1,9,2.83a1.68,1.68,0,0,1,1-.36,1,1,0,0,1,.79.29,1.22,1.22,0,0,1,.27.85v.16a3.66,3.66,0,0,1,.92-1,1.7,1.7,0,0,1,1-.32,1,1,0,0,1,.76.28,1.15,1.15,0,0,1,.27.81,4.43,4.43,0,0,1-.15,1l-.35,1.42a3.84,3.84,0,0,0-.15.83.53.53,0,0,0,.07.31.27.27,0,0,0,.22.09A.61.61,0,0,0,13.93,7a3.71,3.71,0,0,0,.51-.5l.31.3a4.75,4.75,0,0,1-.81.72,1.33,1.33,0,0,1-.79.23.69.69,0,0,1-.56-.25.94.94,0,0,1-.21-.63,4.34,4.34,0,0,1,.18-1l.24-.94c.09-.33.14-.58.17-.75a2.13,2.13,0,0,0,0-.39.94.94,0,0,0-.12-.54.49.49,0,0,0-.41-.16.9.9,0,0,0-.48.17,2.24,2.24,0,0,0-.55.53,4.41,4.41,0,0,0-.46.7,3.14,3.14,0,0,0-.29.85l-.49,2.36H9.27L9.89,5c.08-.33.13-.58.16-.74a3.73,3.73,0,0,0,0-.41A.9.9,0,0,0,10,3.26a.52.52,0,0,0-.43-.16.87.87,0,0,0-.46.17,2.15,2.15,0,0,0-.56.54A4.39,4.39,0,0,0,8,4.53a4.34,4.34,0,0,0-.28.84L7.24,7.71H6.31L7.1,4.29a4.36,4.36,0,0,0,.11-.8.53.53,0,0,0-.07-.31.26.26,0,0,0-.22-.1.6.6,0,0,0-.35.14,4.43,4.43,0,0,0-.51.5l-.31-.3a5.91,5.91,0,0,1,.82-.73,1.35,1.35,0,0,1,.75-.23.68.68,0,0,1,.54.23.85.85,0,0,1,.2.58,1.87,1.87,0,0,1-.13.63Z"/></svg>