<svg id="Capa_1" data-name="Capa 1" xmlns="http://www.w3.org/2000/svg" viewBox="0 0 45.13 9.72"><title>vectores</title><path d="M0,7.44.07,7.1,4.33,0h.78l.62,7.1-.07.34Zm1.14-.8H4.72L4.49,3.55c-.08-1.13-.12-1.92-.12-2.36H4.3Z"/><path d="M10.51,6.43a4.2,4.2,0,0,1-.91.83,1.69,1.69,0,0,1-.91.27A1,1,0,0,1,7.57,6.39a3.49,3.49,0,0,1,.09-.76L8.3,2.84H7.39l.08-.38a2.68,2.68,0,0,0,.48,0,1,1,0,0,0,.28-.12.86.86,0,0,0,.2-.22,2,2,0,0,0,.18-.36c.06-.14.14-.4.26-.76h.74l-.3,1.33H11l-.12.55H9.2L8.72,4.93a8,8,0,0,0-.18.87,2.62,2.62,0,0,0,0,.43c0,.45.19.67.56.67a.93.93,0,0,0,.5-.18,3.25,3.25,0,0,0,.63-.62Z"/><path d="M13.59,8.69a1.34,1.34,0,0,0,0,.21.61.61,0,0,0,0,.15.31.31,0,0,0,.05.1l.07.08a.35.35,0,0,0,.12.07l.2,0,.3,0h.41v.34H11.65V9.38h.4l.27,0,.18,0,.12-.05.1-.08a.59.59,0,0,0,.1-.26,1.41,1.41,0,0,0,0-.22V5.87a.29.29,0,0,0-.06-.21.22.22,0,0,0-.17-.07,1,1,0,0,0-.36.13c-.16.08-.36.21-.62.37l-.09-.18-.09-.18,1-.53c.32-.18.64-.36,1-.53h.24c0,.14,0,.27,0,.38s0,.23,0,.34v3.3Z"/><path d="M19.68,3.53V2.81h6.64v.72Zm0,2.24V5.05h6.64v.72Z"/><path d="M30.24,7.44l.07-.34L34.57,0h.78L36,7.1l-.07.34Zm1.14-.8H35l-.23-3.09c-.08-1.13-.12-1.92-.12-2.36h-.07Z"/><path d="M40.75,6.43a4.2,4.2,0,0,1-.91.83,1.69,1.69,0,0,1-.91.27,1,1,0,0,1-1.12-1.14,3.49,3.49,0,0,1,.09-.76l.64-2.79h-.91l.08-.38a2.68,2.68,0,0,0,.48,0,1,1,0,0,0,.28-.12.86.86,0,0,0,.2-.22,2,2,0,0,0,.18-.36c.06-.14.14-.4.26-.76h.74l-.3,1.33h1.64l-.12.55H39.44L39,4.93a8,8,0,0,0-.18.87,2.62,2.62,0,0,0,0,.43c0,.45.19.67.56.67a.93.93,0,0,0,.5-.18,3.25,3.25,0,0,0,.63-.62Z"/><path d="M44.05,9.08h.29A.47.47,0,0,0,44.53,9a.42.42,0,0,0,.12-.14l.12-.27h.36l0,.56c0,.19,0,.38,0,.56H41.73v-.2c.07-.14.14-.28.22-.42l.29-.42c.1-.14.22-.28.35-.43s.28-.31.45-.47l.6-.63A5,5,0,0,0,44,6.68a1.25,1.25,0,0,0,.18-.37,1.14,1.14,0,0,0,0-.37,1.38,1.38,0,0,0,0-.37A.82.82,0,0,0,44,5.28a.64.64,0,0,0-.27-.18A.84.84,0,0,0,43.37,5a1,1,0,0,0-.61.2,1.21,1.21,0,0,0-.39.57h-.51V5a6.23,6.23,0,0,1,.92-.31,3.71,3.71,0,0,1,.76-.09,2.38,2.38,0,0,1,.7.09,1.39,1.39,0,0,1,.47.25.89.89,0,0,1,.26.38,1.45,1.45,0,0,1,.08.47,2.48,2.48,0,0,1,0,.29,1.29,1.29,0,0,1-.08.26,1,1,0,0,1-.14.25,1.57,1.57,0,0,1-.21.28c-.07.08-.15.18-.26.29L44,7.55l-.39.4c-.14.13-.27.27-.4.4s-.24.26-.35.39a2.21,2.21,0,0,0-.26.34Z"/></svg>