<svg id="Capa_1" data-name="Capa 1" xmlns="http://www.w3.org/2000/svg" viewBox="0 0 141.73 141.73"><defs><style>.cls-1{fill:#45aff0;}.cls-2{fill:#45a0f0;}.cls-3{fill:#d9e1f1;}.cls-4{fill:#e5edfe;}</style></defs><title>pantalla-completa</title><path class="cls-1" d="M120.49,20.28A70.86,70.86,0,0,0,20.62,120.84v0Z"/><path class="cls-2" d="M70.87,141.73A70.86,70.86,0,0,0,120.49,20.28L20.62,120.79v0A70.68,70.68,0,0,0,70.87,141.73Z"/><path class="cls-3" d="M112.12,29.48l.21,0a4.32,4.32,0,0,1,.92,2.87q0,13.77,0,27.55a3.38,3.38,0,0,1-5.94,2.47c-1.89-1.87-3.8-3.72-5.63-5.65-.71-.75-1.11-.82-1.89,0-4.64,4.71-9.33,9.36-14,14-1.93,1.93-3.69,1.91-5.65,0l-4.57-4.5,0-.21c.33-.29.67-.57,1-.88l34.71-34.65C111.54,30.15,111.82,29.8,112.12,29.48Z"/><path class="cls-3" d="M66,75.52l.21,0c1.5,1.52,3,3,4.51,4.57,1.94,1.95,2,3.71,0,5.63l-14,13.93c-1.12,1.12-1.1.87,0,2,1.82,1.84,3.66,3.65,5.49,5.48,1.27,1.29,1.61,2.63,1,4a3.41,3.41,0,0,1-3.5,2q-13.74,0-27.49,0a4.21,4.21,0,0,1-2.87-.92.76.76,0,0,1,0-.21c.31-.27.62-.52.91-.81l34.87-34.8C65.46,76.14,65.71,75.82,66,75.52Z"/><path class="cls-4" d="M112.12,29.48c-.3.32-.58.67-.89,1L76.52,65.11c-.32.31-.66.59-1,.88-1.66-1.63-3.35-3.23-5-4.91-1.41-1.47-1.27-3.37.27-4.91Q78,49,85.12,42c.73-.71.73-1.1,0-1.79-1.93-1.82-3.77-3.74-5.66-5.61a3.34,3.34,0,0,1-1-3.9A3.44,3.44,0,0,1,82,28.56q13.74,0,27.48,0A3.46,3.46,0,0,1,112.12,29.48Z"/><path class="cls-4" d="M66,75.52c-.27.3-.52.62-.81.91L30.3,111.23c-.29.29-.6.54-.91.81a3.21,3.21,0,0,1-.91-2.41q0-13.93,0-27.87a3.29,3.29,0,0,1,2.09-3.33,3.25,3.25,0,0,1,3.75.86c2,2,4,3.94,5.94,6,.57.59.88.59,1.47,0,4.7-4.74,9.44-9.45,14.17-14.17,2-2,3.73-2,5.73,0C63.09,72.57,64.53,74.05,66,75.52Z"/></svg>