<svg id="Capa_1" data-name="Capa 1" xmlns="http://www.w3.org/2000/svg" viewBox="0 0 141.73 141.73"><defs><style>.cls-1{fill:#45aff0;}.cls-2{fill:#45a0f0;}.cls-3{fill:#d9e1f1;}.cls-4{fill:#e5edfe;}</style></defs><title>pantalla-completa</title><path class="cls-1" d="M120.49,20.28A70.86,70.86,0,0,0,20.62,120.84v0Z"/><path class="cls-2" d="M70.87,141.73A70.86,70.86,0,0,0,120.49,20.28L20.62,120.79v0A70.68,70.68,0,0,0,70.87,141.73Z"/><path class="cls-3" d="M74.85,67.14l-.21,0a4.26,4.26,0,0,1-.93-2.87q0-13.77,0-27.55a3.37,3.37,0,0,1,5.93-2.47c1.89,1.87,3.8,3.72,5.63,5.65.72.75,1.12.82,1.9,0,4.63-4.7,9.33-9.35,14-14,1.93-1.92,3.68-1.91,5.64,0l4.57,4.51a1.18,1.18,0,0,1,0,.2c-.33.3-.68.57-1,.89L75.73,66.15C75.42,66.47,75.14,66.81,74.85,67.14Z"/><path class="cls-4" d="M74.85,67.14c.29-.33.57-.67.88-1l34.72-34.64c.31-.32.66-.59,1-.89,1.65,1.64,3.34,3.23,5,4.91,1.4,1.48,1.27,3.38-.27,4.92-4.75,4.75-9.49,9.51-14.28,14.22-.72.71-.72,1.09,0,1.78,1.93,1.82,3.77,3.74,5.66,5.61a3.33,3.33,0,0,1,1,3.9A3.41,3.41,0,0,1,105,68.05H77.48A3.46,3.46,0,0,1,74.85,67.14Z"/><path class="cls-3" d="M32.2,109.73a1.52,1.52,0,0,1-.21,0c-1.5-1.52-3-3-4.51-4.56-1.94-2-2-3.71,0-5.64l14-13.93c1.12-1.12,1.09-.86,0-2-1.82-1.83-3.66-3.65-5.49-5.48a3.39,3.39,0,0,1,2.51-6q13.76,0,27.5,0a4.32,4.32,0,0,1,2.87.92,1.52,1.52,0,0,1,0,.21c-.31.27-.62.52-.91.81L33,108.83C32.72,109.11,32.47,109.43,32.2,109.73Z"/><path class="cls-4" d="M32.2,109.73c.27-.3.52-.62.81-.9L67.88,74c.29-.29.6-.54.91-.81a3.21,3.21,0,0,1,.91,2.41q0,13.93,0,27.87a3.29,3.29,0,0,1-2.09,3.33,3.25,3.25,0,0,1-3.75-.86c-2-2-4-3.94-5.94-5.95-.58-.6-.88-.6-1.47,0-4.7,4.75-9.44,9.45-14.17,14.17-2,2-3.74,2-5.73,0C35.09,112.68,33.65,111.2,32.2,109.73Z"/></svg>