<svg id="Capa_1" data-name="Capa 1" xmlns="http://www.w3.org/2000/svg" viewBox="0 0 80.42 80.39"><defs><style>.cls-1{fill:#fff;}</style></defs><title>iconDescargar</title><path class="cls-1" d="M48.66,0a20.38,20.38,0,0,1,2,.92A5.29,5.29,0,0,1,52.75,5.4c0,7.12,0,14.23,0,21.35,0,.71.16.91.89.9,3,0,6,0,9,0a8.28,8.28,0,0,1,2.92.47,3.36,3.36,0,0,1,2.2,3.81,5.57,5.57,0,0,1-1.5,2.95q-11,11.19-21.88,22.4a13.16,13.16,0,0,1-2.19,1.89,3.35,3.35,0,0,1-4,0A13.87,13.87,0,0,1,36,57.31Q25,46,13.89,34.61A4.67,4.67,0,0,1,12.58,31,3.61,3.61,0,0,1,16,27.77a17.46,17.46,0,0,1,2-.14c2.93,0,5.86,0,8.79,0,.68,0,.8-.2.8-.83,0-7,0-14.08,0-21.11,0-2.64,1.28-4.82,3.72-5.53.08,0,.15-.12.22-.18Z"/><path class="cls-1" d="M0,71.74A17.22,17.22,0,0,1,.88,70a5,5,0,0,1,3.88-2.2c.26,0,.53,0,.79,0H74.83a5.15,5.15,0,0,1,5,2.84,3.59,3.59,0,0,1,.38,1.1,13.43,13.43,0,0,1,0,4.69,4.93,4.93,0,0,1-4.6,3.92c-.34,0-.68,0-1,0q-34.32,0-68.65,0c-2.83,0-4.86-1-5.78-3.79,0-.06-.11-.1-.16-.15Z"/></svg>